STARTFONT 2.1
FONT -FontForge-Goethe-Medium-R-Normal--22-160-100-100-P-93-ISO10646-1
SIZE 16 100 100
FONTBOUNDINGBOX 40 24 -11 -7
COMMENT "Generated by fontforge, http://fontforge.sourceforge.net"
COMMENT "Created by Rebecca Bettencourt with FontForge 2.0 (http://fontforge.sf.net)"
STARTPROPERTIES 40
FOUNDRY "FontForge"
FAMILY_NAME "Goethe"
WEIGHT_NAME "Medium"
SLANT "R"
SETWIDTH_NAME "Normal"
ADD_STYLE_NAME ""
PIXEL_SIZE 22
POINT_SIZE 160
RESOLUTION_X 100
RESOLUTION_Y 100
SPACING "P"
AVERAGE_WIDTH 93
CHARSET_REGISTRY "ISO10646"
CHARSET_ENCODING "1"
FONTNAME_REGISTRY ""
CHARSET_COLLECTIONS "ISO8859-2 ISO8859-5 ISO8859-7 ISO8859-9 ISO8859-4 ISO10646-1"
FONT_NAME "Goethe"
FACE_NAME "Goethe"
COPYRIGHT "Created by Rebecca Bettencourt with FontForge 2.0 (http://fontforge.sf.net)"
FONT_VERSION "1.0"
FONT_ASCENT 15
FONT_DESCENT 7
UNDERLINE_POSITION -2
UNDERLINE_THICKNESS 2
X_HEIGHT 8
CAP_HEIGHT 11
RAW_ASCENT 700
RAW_DESCENT 300
NORM_SPACE 6
RELATIVE_WEIGHT 50
RELATIVE_SETWIDTH 50
SUPERSCRIPT_X 0
SUPERSCRIPT_Y 11
SUPERSCRIPT_SIZE 22
SUBSCRIPT_X 0
SUBSCRIPT_Y 11
SUBSCRIPT_SIZE 22
FIGURE_WIDTH 9
AVG_LOWERCASE_WIDTH 89
AVG_UPPERCASE_WIDTH 105
ENDPROPERTIES
CHARS 813
STARTCHAR space
ENCODING 32
SWIDTH 250 0
DWIDTH 6 0
BBX 1 1 0 0
BITMAP
00
ENDCHAR
STARTCHAR exclam
ENCODING 33
SWIDTH 100 0
DWIDTH 2 0
BBX 1 12 0 0
BITMAP
80
80
80
80
80
80
80
80
80
00
80
80
ENDCHAR
STARTCHAR quotedbl
ENCODING 34
SWIDTH 200 0
DWIDTH 4 0
BBX 3 3 0 10
BITMAP
A0
A0
A0
ENDCHAR
STARTCHAR numbersign
ENCODING 35
SWIDTH 450 0
DWIDTH 10 0
BBX 9 9 0 3
BITMAP
1100
1100
7F80
2600
2600
FF00
FF00
4C00
4C00
ENDCHAR
STARTCHAR dollar
ENCODING 36
SWIDTH 400 0
DWIDTH 9 0
BBX 8 16 0 -2
BITMAP
10
10
3D
57
91
90
50
3C
3E
16
11
91
D6
BC
10
10
ENDCHAR
STARTCHAR percent
ENCODING 37
SWIDTH 500 0
DWIDTH 11 0
BBX 10 12 0 0
BITMAP
6F00
9100
9600
9600
6C00
0C00
0D80
0D80
1640
1640
2640
2180
ENDCHAR
STARTCHAR ampersand
ENCODING 38
SWIDTH 500 0
DWIDTH 11 0
BBX 10 12 0 0
BITMAP
2000
5000
5000
5000
2000
51C0
DDC0
8C80
8D00
8600
4D00
3080
ENDCHAR
STARTCHAR quotesingle
ENCODING 39
SWIDTH 100 0
DWIDTH 2 0
BBX 1 3 0 10
BITMAP
80
80
80
ENDCHAR
STARTCHAR parenleft
ENCODING 40
SWIDTH 200 0
DWIDTH 4 0
BBX 3 16 0 -3
BITMAP
20
40
40
40
80
80
80
80
80
80
80
80
40
40
40
20
ENDCHAR
STARTCHAR parenright
ENCODING 41
SWIDTH 200 0
DWIDTH 4 0
BBX 3 16 0 -3
BITMAP
80
40
40
40
20
20
20
20
20
20
20
20
40
40
40
80
ENDCHAR
STARTCHAR asterisk
ENCODING 42
SWIDTH 300 0
DWIDTH 7 0
BBX 6 5 0 8
BITMAP
20
AC
70
AC
20
ENDCHAR
STARTCHAR plus
ENCODING 43
SWIDTH 400 0
DWIDTH 9 0
BBX 8 8 0 1
BITMAP
10
10
10
FF
FF
10
10
10
ENDCHAR
STARTCHAR comma
ENCODING 44
SWIDTH 150 0
DWIDTH 3 0
BBX 2 3 0 -1
BITMAP
40
40
80
ENDCHAR
STARTCHAR hyphen
ENCODING 45
SWIDTH 350 0
DWIDTH 8 0
BBX 7 2 0 4
BITMAP
FE
FE
ENDCHAR
STARTCHAR period
ENCODING 46
SWIDTH 100 0
DWIDTH 2 0
BBX 1 2 0 0
BITMAP
80
80
ENDCHAR
STARTCHAR slash
ENCODING 47
SWIDTH 300 0
DWIDTH 7 0
BBX 6 16 0 -3
BITMAP
0C
0C
0C
10
10
10
20
20
20
20
40
40
40
80
80
80
ENDCHAR
STARTCHAR zero
ENCODING 48
SWIDTH 400 0
DWIDTH 9 0
BBX 8 12 0 0
BITMAP
3C
46
46
81
81
81
81
81
81
46
46
3C
ENDCHAR
STARTCHAR one
ENCODING 49
SWIDTH 400 0
DWIDTH 9 0
BBX 4 12 2 0
BITMAP
40
C0
40
40
40
40
40
40
40
40
40
F0
ENDCHAR
STARTCHAR two
ENCODING 50
SWIDTH 400 0
DWIDTH 9 0
BBX 8 12 0 0
BITMAP
7C
86
01
01
06
0C
1C
10
20
40
81
FF
ENDCHAR
STARTCHAR three
ENCODING 51
SWIDTH 400 0
DWIDTH 9 0
BBX 8 12 0 0
BITMAP
7C
86
01
01
06
3C
3E
06
01
01
86
7C
ENDCHAR
STARTCHAR four
ENCODING 52
SWIDTH 400 0
DWIDTH 9 0
BBX 8 12 0 0
BITMAP
2C
2C
2C
4C
4C
8C
FF
FF
0C
0C
0C
1E
ENDCHAR
STARTCHAR five
ENCODING 53
SWIDTH 400 0
DWIDTH 9 0
BBX 8 12 0 0
BITMAP
7F
40
80
80
FC
06
07
01
01
01
86
7C
ENDCHAR
STARTCHAR six
ENCODING 54
SWIDTH 400 0
DWIDTH 9 0
BBX 8 12 0 0
BITMAP
1E
20
40
80
BC
C6
C7
81
81
81
46
3C
ENDCHAR
STARTCHAR seven
ENCODING 55
SWIDTH 400 0
DWIDTH 9 0
BBX 8 12 0 0
BITMAP
FF
81
06
06
0C
0C
0C
0C
10
10
10
10
ENDCHAR
STARTCHAR eight
ENCODING 56
SWIDTH 400 0
DWIDTH 9 0
BBX 8 12 0 0
BITMAP
3C
46
81
81
46
3C
7E
46
81
81
46
3C
ENDCHAR
STARTCHAR nine
ENCODING 57
SWIDTH 400 0
DWIDTH 9 0
BBX 8 12 0 0
BITMAP
3C
46
81
81
81
47
7F
3D
01
06
0C
30
ENDCHAR
STARTCHAR colon
ENCODING 58
SWIDTH 100 0
DWIDTH 2 0
BBX 1 8 0 0
BITMAP
80
80
80
00
00
00
80
80
ENDCHAR
STARTCHAR semicolon
ENCODING 59
SWIDTH 150 0
DWIDTH 3 0
BBX 2 9 0 -1
BITMAP
40
40
40
00
00
00
40
40
80
ENDCHAR
STARTCHAR less
ENCODING 60
SWIDTH 250 0
DWIDTH 6 0
BBX 4 8 0 1
BITMAP
10
20
40
C0
80
40
20
10
ENDCHAR
STARTCHAR equal
ENCODING 61
SWIDTH 350 0
DWIDTH 8 0
BBX 7 4 0 3
BITMAP
FE
FE
00
FE
ENDCHAR
STARTCHAR greater
ENCODING 62
SWIDTH 250 0
DWIDTH 6 0
BBX 4 8 0 1
BITMAP
80
40
20
30
10
20
40
80
ENDCHAR
STARTCHAR question
ENCODING 63
SWIDTH 400 0
DWIDTH 9 0
BBX 8 12 0 0
BITMAP
3C
46
81
01
06
0C
1C
10
10
00
10
10
ENDCHAR
STARTCHAR at
ENCODING 64
SWIDTH 550 0
DWIDTH 12 0
BBX 11 11 0 0
BITMAP
1F00
60C0
4040
8F20
9120
9120
9120
8EC0
4000
6000
1E00
ENDCHAR
STARTCHAR A
ENCODING 65
SWIDTH 500 0
DWIDTH 11 0
BBX 10 12 0 0
BITMAP
1C00
0C00
1600
1600
1600
2100
3F00
3F00
2100
4080
4080
E1C0
ENDCHAR
STARTCHAR B
ENCODING 66
SWIDTH 450 0
DWIDTH 10 0
BBX 9 12 0 0
BITMAP
FE00
4100
4080
4080
4100
7E00
7F00
4100
4080
4080
4100
FE00
ENDCHAR
STARTCHAR C
ENCODING 67
SWIDTH 450 0
DWIDTH 10 0
BBX 9 12 0 0
BITMAP
1E80
6180
4080
8000
8000
8000
8000
8000
8000
4080
6180
1E00
ENDCHAR
STARTCHAR D
ENCODING 68
SWIDTH 450 0
DWIDTH 10 0
BBX 9 12 0 0
BITMAP
FC00
4700
4100
4080
4080
4080
4080
4080
4080
4100
4700
FC00
ENDCHAR
STARTCHAR E
ENCODING 69
SWIDTH 450 0
DWIDTH 10 0
BBX 9 12 0 0
BITMAP
FF80
4080
4000
4000
4600
7E00
7E00
4600
4000
4000
4080
FF80
ENDCHAR
STARTCHAR F
ENCODING 70
SWIDTH 450 0
DWIDTH 10 0
BBX 9 12 0 0
BITMAP
FF80
4080
4000
4000
4600
7E00
7E00
4600
4000
4000
4000
E000
ENDCHAR
STARTCHAR G
ENCODING 71
SWIDTH 450 0
DWIDTH 10 0
BBX 9 12 0 0
BITMAP
1E80
6180
4080
8000
8000
8780
8780
8080
8080
4080
6180
1E80
ENDCHAR
STARTCHAR H
ENCODING 72
SWIDTH 500 0
DWIDTH 11 0
BBX 10 12 0 0
BITMAP
E1C0
4080
4080
4080
4080
7F80
7F80
4080
4080
4080
4080
E1C0
ENDCHAR
STARTCHAR I
ENCODING 73
SWIDTH 200 0
DWIDTH 4 0
BBX 3 12 0 0
BITMAP
E0
40
40
40
40
40
40
40
40
40
40
E0
ENDCHAR
STARTCHAR J
ENCODING 74
SWIDTH 450 0
DWIDTH 10 0
BBX 9 12 0 0
BITMAP
0780
0100
0100
0100
0100
0100
0100
0100
0100
8600
CE00
3000
ENDCHAR
STARTCHAR K
ENCODING 75
SWIDTH 450 0
DWIDTH 10 0
BBX 9 12 0 0
BITMAP
E780
4100
4600
4C00
5000
6C00
6E00
4600
4600
4100
4100
E780
ENDCHAR
STARTCHAR L
ENCODING 76
SWIDTH 450 0
DWIDTH 10 0
BBX 9 12 0 0
BITMAP
E000
4000
4000
4000
4000
4000
4000
4000
4000
4000
4080
FF80
ENDCHAR
STARTCHAR M
ENCODING 77
SWIDTH 600 0
DWIDTH 13 0
BBX 12 12 0 0
BITMAP
C030
6060
50A0
4D20
4620
4620
4620
4020
4020
4020
4020
E070
ENDCHAR
STARTCHAR N
ENCODING 78
SWIDTH 500 0
DWIDTH 11 0
BBX 10 12 0 0
BITMAP
C1C0
6080
6080
5080
5080
4C80
4C80
4C80
4680
4680
4180
E080
ENDCHAR
STARTCHAR O
ENCODING 79
SWIDTH 500 0
DWIDTH 11 0
BBX 10 12 0 0
BITMAP
1E00
6180
4080
8040
8040
8040
8040
8040
8040
4080
6180
1E00
ENDCHAR
STARTCHAR P
ENCODING 80
SWIDTH 450 0
DWIDTH 10 0
BBX 9 12 0 0
BITMAP
FE00
4100
4080
4080
4100
7E00
7E00
4000
4000
4000
4000
E000
ENDCHAR
STARTCHAR Q
ENCODING 81
SWIDTH 500 0
DWIDTH 11 0
BBX 10 14 0 -2
BITMAP
1E00
6180
4080
8040
8040
8040
8040
8040
8040
4080
6180
1E00
2100
00C0
ENDCHAR
STARTCHAR R
ENCODING 82
SWIDTH 450 0
DWIDTH 10 0
BBX 9 12 0 0
BITMAP
FE00
4100
4080
4080
4100
7E00
7E00
4C00
4600
4100
4100
E080
ENDCHAR
STARTCHAR S
ENCODING 83
SWIDTH 400 0
DWIDTH 9 0
BBX 8 12 0 0
BITMAP
3D
47
81
80
40
3C
3E
06
01
81
C6
BC
ENDCHAR
STARTCHAR T
ENCODING 84
SWIDTH 400 0
DWIDTH 9 0
BBX 8 12 0 0
BITMAP
FF
91
10
10
10
10
10
10
10
10
10
3C
ENDCHAR
STARTCHAR U
ENCODING 85
SWIDTH 550 0
DWIDTH 12 0
BBX 11 12 0 0
BITMAP
E0E0
4040
4040
4040
4040
4040
4040
4040
4040
2080
3180
0E00
ENDCHAR
STARTCHAR V
ENCODING 86
SWIDTH 500 0
DWIDTH 11 0
BBX 10 12 0 0
BITMAP
E1C0
4080
4080
2100
2100
2100
3700
1600
1600
1600
0C00
0C00
ENDCHAR
STARTCHAR W
ENCODING 87
SWIDTH 700 0
DWIDTH 15 0
BBX 14 12 0 0
BITMAP
E01C
4008
4008
2110
2110
2110
37B0
16A0
16A0
16A0
0C40
0C40
ENDCHAR
STARTCHAR X
ENCODING 88
SWIDTH 500 0
DWIDTH 11 0
BBX 10 12 0 0
BITMAP
E1C0
4080
2100
2100
1600
0C00
1E00
1600
2100
2100
4080
E1C0
ENDCHAR
STARTCHAR Y
ENCODING 89
SWIDTH 500 0
DWIDTH 11 0
BBX 10 12 0 0
BITMAP
E1C0
4080
2100
2100
1600
0C00
0C00
0C00
0C00
0C00
0C00
1E00
ENDCHAR
STARTCHAR Z
ENCODING 90
SWIDTH 400 0
DWIDTH 9 0
BBX 8 12 0 0
BITMAP
FF
81
06
0C
0C
10
30
20
20
40
81
FF
ENDCHAR
STARTCHAR bracketleft
ENCODING 91
SWIDTH 200 0
DWIDTH 4 0
BBX 3 16 0 -3
BITMAP
E0
80
80
80
80
80
80
80
80
80
80
80
80
80
80
E0
ENDCHAR
STARTCHAR backslash
ENCODING 92
SWIDTH 300 0
DWIDTH 7 0
BBX 6 16 0 -3
BITMAP
80
80
80
40
40
40
20
20
20
20
10
10
10
0C
0C
0C
ENDCHAR
STARTCHAR bracketright
ENCODING 93
SWIDTH 200 0
DWIDTH 4 0
BBX 3 16 0 -3
BITMAP
E0
20
20
20
20
20
20
20
20
20
20
20
20
20
20
E0
ENDCHAR
STARTCHAR asciicircum
ENCODING 94
SWIDTH 300 0
DWIDTH 7 0
BBX 6 3 0 10
BITMAP
20
50
8C
ENDCHAR
STARTCHAR underscore
ENCODING 95
SWIDTH 400 0
DWIDTH 9 0
BBX 8 1 0 -1
BITMAP
FF
ENDCHAR
STARTCHAR grave
ENCODING 96
SWIDTH 200 0
DWIDTH 4 0
BBX 3 3 0 10
BITMAP
80
40
20
ENDCHAR
STARTCHAR a
ENCODING 97
SWIDTH 400 0
DWIDTH 9 0
BBX 8 9 0 0
BITMAP
3C
46
06
3E
3E
46
86
8E
77
ENDCHAR
STARTCHAR b
ENCODING 98
SWIDTH 450 0
DWIDTH 10 0
BBX 9 13 0 0
BITMAP
C000
4000
4000
4000
5E00
6100
4080
4080
4080
4080
4080
6100
DE00
ENDCHAR
STARTCHAR c
ENCODING 99
SWIDTH 400 0
DWIDTH 9 0
BBX 8 9 0 0
BITMAP
3D
47
81
81
80
80
81
46
3C
ENDCHAR
STARTCHAR d
ENCODING 100
SWIDTH 450 0
DWIDTH 10 0
BBX 9 13 0 0
BITMAP
0700
0100
0100
0100
3D00
4700
8100
8100
8100
8100
8100
4700
3D80
ENDCHAR
STARTCHAR e
ENCODING 101
SWIDTH 400 0
DWIDTH 9 0
BBX 8 9 0 0
BITMAP
3C
46
81
FF
FF
80
80
46
3C
ENDCHAR
STARTCHAR f
ENCODING 102
SWIDTH 200 0
DWIDTH 4 0
BBX 6 13 0 0
BITMAP
1C
20
40
40
E0
40
40
40
40
40
40
40
E0
ENDCHAR
STARTCHAR g
ENCODING 103
SWIDTH 450 0
DWIDTH 10 0
BBX 9 13 0 -4
BITMAP
3D80
4700
8100
8100
8100
8100
8100
4700
3D00
0100
0100
0600
3C00
ENDCHAR
STARTCHAR h
ENCODING 104
SWIDTH 450 0
DWIDTH 10 0
BBX 9 13 0 0
BITMAP
C000
4000
4000
4000
5C00
6600
4100
4100
4100
4100
4100
4100
E780
ENDCHAR
STARTCHAR i
ENCODING 105
SWIDTH 200 0
DWIDTH 4 0
BBX 3 13 0 0
BITMAP
40
40
00
00
C0
40
40
40
40
40
40
40
E0
ENDCHAR
STARTCHAR j
ENCODING 106
SWIDTH 150 0
DWIDTH 3 0
BBX 4 17 -2 -4
BITMAP
10
10
00
00
30
10
10
10
10
10
10
10
10
10
10
20
C0
ENDCHAR
STARTCHAR k
ENCODING 107
SWIDTH 450 0
DWIDTH 10 0
BBX 9 13 0 0
BITMAP
C000
4000
4000
4000
4F00
4600
4C00
5C00
5000
6C00
4600
4100
E780
ENDCHAR
STARTCHAR l
ENCODING 108
SWIDTH 200 0
DWIDTH 4 0
BBX 3 13 0 0
BITMAP
C0
40
40
40
40
40
40
40
40
40
40
40
E0
ENDCHAR
STARTCHAR m
ENCODING 109
SWIDTH 700 0
DWIDTH 15 0
BBX 14 9 0 0
BITMAP
DC60
6690
4108
4108
4108
4108
4108
4108
E79C
ENDCHAR
STARTCHAR n
ENCODING 110
SWIDTH 450 0
DWIDTH 10 0
BBX 9 9 0 0
BITMAP
DC00
6600
4100
4100
4100
4100
4100
4100
E780
ENDCHAR
STARTCHAR o
ENCODING 111
SWIDTH 400 0
DWIDTH 9 0
BBX 8 9 0 0
BITMAP
3C
46
81
81
81
81
81
46
3C
ENDCHAR
STARTCHAR p
ENCODING 112
SWIDTH 450 0
DWIDTH 10 0
BBX 9 13 0 -4
BITMAP
DE00
6100
4080
4080
4080
4080
4080
6100
5E00
4000
4000
4000
E000
ENDCHAR
STARTCHAR q
ENCODING 113
SWIDTH 450 0
DWIDTH 10 0
BBX 9 13 0 -4
BITMAP
3D80
4700
8100
8100
8100
8100
8100
4700
3D00
0100
0100
0100
0780
ENDCHAR
STARTCHAR r
ENCODING 114
SWIDTH 400 0
DWIDTH 9 0
BBX 8 9 0 0
BITMAP
DE
61
40
40
40
40
40
40
E0
ENDCHAR
STARTCHAR s
ENCODING 115
SWIDTH 350 0
DWIDTH 8 0
BBX 7 9 0 0
BITMAP
76
8E
86
E6
60
1C
86
C6
BC
ENDCHAR
STARTCHAR t
ENCODING 116
SWIDTH 200 0
DWIDTH 4 0
BBX 4 13 0 0
BITMAP
40
40
40
40
E0
40
40
40
40
40
40
40
30
ENDCHAR
STARTCHAR u
ENCODING 117
SWIDTH 450 0
DWIDTH 10 0
BBX 9 9 0 0
BITMAP
C700
4100
4100
4100
4100
4100
4100
2700
1D80
ENDCHAR
STARTCHAR v
ENCODING 118
SWIDTH 400 0
DWIDTH 9 0
BBX 8 9 0 0
BITMAP
EF
46
46
6E
2C
2C
2C
10
10
ENDCHAR
STARTCHAR w
ENCODING 119
SWIDTH 500 0
DWIDTH 11 0
BBX 10 9 0 0
BITMAP
E1C0
4080
4080
6D80
2D00
2D00
2D00
1600
1600
ENDCHAR
STARTCHAR x
ENCODING 120
SWIDTH 400 0
DWIDTH 9 0
BBX 8 9 0 0
BITMAP
EF
46
2C
3C
10
10
2C
46
EF
ENDCHAR
STARTCHAR y
ENCODING 121
SWIDTH 400 0
DWIDTH 9 0
BBX 8 13 0 -4
BITMAP
EF
46
46
6E
2C
2C
2C
10
10
20
20
40
80
ENDCHAR
STARTCHAR z
ENCODING 122
SWIDTH 350 0
DWIDTH 8 0
BBX 7 9 0 0
BITMAP
FE
86
0C
1C
10
20
40
86
FE
ENDCHAR
STARTCHAR braceleft
ENCODING 123
SWIDTH 300 0
DWIDTH 7 0
BBX 6 16 0 -3
BITMAP
1C
20
20
20
20
20
20
E0
C0
20
20
20
20
20
20
1C
ENDCHAR
STARTCHAR bar
ENCODING 124
SWIDTH 100 0
DWIDTH 2 0
BBX 1 16 0 -3
BITMAP
80
80
80
80
80
80
80
80
80
80
80
80
80
80
80
80
ENDCHAR
STARTCHAR braceright
ENCODING 125
SWIDTH 300 0
DWIDTH 7 0
BBX 6 16 0 -3
BITMAP
C0
20
20
20
20
20
20
3C
1C
20
20
20
20
20
20
C0
ENDCHAR
STARTCHAR asciitilde
ENCODING 126
SWIDTH 350 0
DWIDTH 8 0
BBX 7 2 0 11
BITMAP
66
9C
ENDCHAR
STARTCHAR nonbreakingspace
ENCODING 160
SWIDTH 250 0
DWIDTH 6 0
BBX 1 1 0 0
BITMAP
00
ENDCHAR
STARTCHAR exclamdown
ENCODING 161
SWIDTH 100 0
DWIDTH 2 0
BBX 1 12 0 -3
BITMAP
80
80
00
80
80
80
80
80
80
80
80
80
ENDCHAR
STARTCHAR cent
ENCODING 162
SWIDTH 400 0
DWIDTH 9 0
BBX 8 13 0 -2
BITMAP
10
10
3D
57
91
91
90
90
91
56
3C
10
10
ENDCHAR
STARTCHAR sterling
ENCODING 163
SWIDTH 400 0
DWIDTH 9 0
BBX 8 12 0 0
BITMAP
1C
26
20
20
7C
20
20
20
20
20
41
FF
ENDCHAR
STARTCHAR currency
ENCODING 164
SWIDTH 350 0
DWIDTH 8 0
BBX 7 7 0 2
BITMAP
B6
4C
86
86
86
4C
B6
ENDCHAR
STARTCHAR yen
ENCODING 165
SWIDTH 500 0
DWIDTH 11 0
BBX 10 12 0 0
BITMAP
E1C0
4080
2100
2100
1600
3F00
3F00
0C00
3F00
0C00
0C00
1E00
ENDCHAR
STARTCHAR brokenbar
ENCODING 166
SWIDTH 100 0
DWIDTH 2 0
BBX 1 16 0 -3
BITMAP
80
80
80
80
80
80
00
00
00
00
80
80
80
80
80
80
ENDCHAR
STARTCHAR section
ENCODING 167
SWIDTH 350 0
DWIDTH 8 0
BBX 7 13 0 -1
BITMAP
30
4C
40
30
4C
86
86
86
4C
30
0C
4C
30
ENDCHAR
STARTCHAR dieresis
ENCODING 168
SWIDTH 350 0
DWIDTH 8 0
BBX 7 1 0 12
BITMAP
CE
ENDCHAR
STARTCHAR copyright
ENCODING 169
SWIDTH 600 0
DWIDTH 13 0
BBX 12 12 0 0
BITMAP
0F00
30C0
4020
4F20
9090
9010
9090
9090
4F20
4020
30C0
0F00
ENDCHAR
STARTCHAR ordfeminine
ENCODING 170
SWIDTH 350 0
DWIDTH 8 0
BBX 7 8 0 4
BITMAP
70
0C
7C
8C
7E
00
7C
7C
ENDCHAR
STARTCHAR guillemotleft
ENCODING 171
SWIDTH 400 0
DWIDTH 9 0
BBX 8 8 0 1
BITMAP
11
26
4C
DC
90
4C
26
11
ENDCHAR
STARTCHAR logicalnot
ENCODING 172
SWIDTH 400 0
DWIDTH 9 0
BBX 8 4 0 3
BITMAP
FF
FF
01
01
ENDCHAR
STARTCHAR hyphen
ENCODING 173
SWIDTH 350 0
DWIDTH 8 0
BBX 7 2 0 4
BITMAP
FE
FE
ENDCHAR
STARTCHAR registered
ENCODING 174
SWIDTH 600 0
DWIDTH 13 0
BBX 12 12 0 0
BITMAP
0F00
30C0
4020
5F20
9090
9F10
9F10
9110
50A0
4020
30C0
0F00
ENDCHAR
STARTCHAR macron
ENCODING 175
SWIDTH 300 0
DWIDTH 7 0
BBX 6 1 0 12
BITMAP
FC
ENDCHAR
STARTCHAR degree
ENCODING 176
SWIDTH 300 0
DWIDTH 7 0
BBX 6 5 0 7
BITMAP
70
8C
8C
8C
70
ENDCHAR
STARTCHAR plusminus
ENCODING 177
SWIDTH 400 0
DWIDTH 9 0
BBX 8 10 0 0
BITMAP
10
10
10
FF
FF
10
10
10
00
FF
ENDCHAR
STARTCHAR twosuperior
ENCODING 178
SWIDTH 300 0
DWIDTH 7 0
BBX 6 6 0 7
BITMAP
70
8C
10
20
40
FC
ENDCHAR
STARTCHAR threesuperior
ENCODING 179
SWIDTH 300 0
DWIDTH 7 0
BBX 6 6 0 7
BITMAP
70
8C
30
0C
8C
70
ENDCHAR
STARTCHAR acute
ENCODING 180
SWIDTH 200 0
DWIDTH 4 0
BBX 3 3 0 10
BITMAP
20
40
80
ENDCHAR
STARTCHAR mu
ENCODING 181
SWIDTH 450 0
DWIDTH 10 0
BBX 9 13 0 -4
BITMAP
C700
4100
4100
4100
4100
4100
4100
6700
5D80
4000
4000
4000
4000
ENDCHAR
STARTCHAR paragraph
ENCODING 182
SWIDTH 500 0
DWIDTH 11 0
BBX 10 13 0 -1
BITMAP
3FC0
7E80
FE80
FE80
FE80
7E80
7E80
3E80
0680
0680
0680
0680
0680
ENDCHAR
STARTCHAR periodcentered
ENCODING 183
SWIDTH 100 0
DWIDTH 2 0
BBX 1 3 0 5
BITMAP
80
80
80
ENDCHAR
STARTCHAR cedilla
ENCODING 184
SWIDTH 300 0
DWIDTH 7 0
BBX 3 4 1 -4
BITMAP
40
20
A0
40
ENDCHAR
STARTCHAR onesuperior
ENCODING 185
SWIDTH 300 0
DWIDTH 7 0
BBX 3 6 1 7
BITMAP
40
C0
40
40
40
E0
ENDCHAR
STARTCHAR ordmasculine
ENCODING 186
SWIDTH 300 0
DWIDTH 7 0
BBX 6 8 0 4
BITMAP
70
8C
8C
8C
70
00
70
70
ENDCHAR
STARTCHAR guillemotright
ENCODING 187
SWIDTH 400 0
DWIDTH 9 0
BBX 8 8 0 1
BITMAP
90
4C
26
37
11
26
4C
90
ENDCHAR
STARTCHAR onequarter
ENCODING 188
SWIDTH 500 0
DWIDTH 11 0
BBX 10 12 0 0
BITMAP
4100
C100
4600
4600
EC00
0C00
0C80
0C80
1180
1680
27C0
2080
ENDCHAR
STARTCHAR onehalf
ENCODING 189
SWIDTH 500 0
DWIDTH 11 0
BBX 10 12 0 0
BITMAP
4100
C100
4600
4600
EC00
0C00
0D80
0D80
1640
1080
2100
27C0
ENDCHAR
STARTCHAR threequarters
ENCODING 190
SWIDTH 500 0
DWIDTH 11 0
BBX 10 12 0 0
BITMAP
6100
9100
2600
9600
6C00
0C00
0C80
0C80
1180
1680
27C0
2080
ENDCHAR
STARTCHAR questiondown
ENCODING 191
SWIDTH 400 0
DWIDTH 9 0
BBX 8 12 0 -3
BITMAP
10
10
00
10
10
10
20
40
80
81
46
3C
ENDCHAR
STARTCHAR Agrave
ENCODING 192
SWIDTH 500 0
DWIDTH 11 0
BBX 10 15 0 0
BITMAP
1000
0C00
0000
1C00
0C00
1600
1600
1600
2100
3F00
3F00
2100
4080
4080
E1C0
ENDCHAR
STARTCHAR Aacute
ENCODING 193
SWIDTH 500 0
DWIDTH 11 0
BBX 10 15 0 0
BITMAP
0600
0C00
0000
1C00
0C00
1600
1600
1600
2100
3F00
3F00
2100
4080
4080
E1C0
ENDCHAR
STARTCHAR Acircumflex
ENCODING 194
SWIDTH 500 0
DWIDTH 11 0
BBX 10 15 0 0
BITMAP
0C00
1600
0000
1C00
0C00
1600
1600
1600
2100
3F00
3F00
2100
4080
4080
E1C0
ENDCHAR
STARTCHAR Atilde
ENCODING 195
SWIDTH 500 0
DWIDTH 11 0
BBX 10 15 0 0
BITMAP
1D00
2E00
0000
1C00
0C00
1600
1600
1600
2100
3F00
3F00
2100
4080
4080
E1C0
ENDCHAR
STARTCHAR Adieresis
ENCODING 196
SWIDTH 500 0
DWIDTH 11 0
BBX 10 14 0 0
BITMAP
3700
0000
1C00
0C00
1600
1600
1600
2100
3F00
3F00
2100
4080
4080
E1C0
ENDCHAR
STARTCHAR Aring
ENCODING 197
SWIDTH 500 0
DWIDTH 11 0
BBX 10 15 0 0
BITMAP
1E00
2100
1E00
0C00
0C00
1600
1600
1600
2100
3F00
3F00
2100
4080
4080
E1C0
ENDCHAR
STARTCHAR AE
ENCODING 198
SWIDTH 700 0
DWIDTH 15 0
BBX 14 12 0 0
BITMAP
0FFC
0704
0D00
0D00
1110
1FF0
3FF0
2110
2100
4100
4104
E7FC
ENDCHAR
STARTCHAR Ccedilla
ENCODING 199
SWIDTH 450 0
DWIDTH 10 0
BBX 9 16 0 -4
BITMAP
1E80
6180
4080
8000
8000
8000
8000
8000
8000
4080
6180
1E00
0C00
0600
1600
0C00
ENDCHAR
STARTCHAR Egrave
ENCODING 200
SWIDTH 450 0
DWIDTH 10 0
BBX 9 15 0 0
BITMAP
1000
0C00
0000
FF80
4080
4000
4000
4600
7E00
7E00
4600
4000
4000
4080
FF80
ENDCHAR
STARTCHAR Eacute
ENCODING 201
SWIDTH 450 0
DWIDTH 10 0
BBX 9 15 0 0
BITMAP
0C00
1000
0000
FF80
4080
4000
4000
4600
7E00
7E00
4600
4000
4000
4080
FF80
ENDCHAR
STARTCHAR Ecircumflex
ENCODING 202
SWIDTH 450 0
DWIDTH 10 0
BBX 9 15 0 0
BITMAP
1C00
2600
0000
FF80
4080
4000
4000
4600
7E00
7E00
4600
4000
4000
4080
FF80
ENDCHAR
STARTCHAR Edieresis
ENCODING 203
SWIDTH 450 0
DWIDTH 10 0
BBX 9 14 0 0
BITMAP
6700
0000
FF80
4080
4000
4000
4600
7E00
7E00
4600
4000
4000
4080
FF80
ENDCHAR
STARTCHAR Igrave
ENCODING 204
SWIDTH 200 0
DWIDTH 4 0
BBX 3 15 0 0
BITMAP
80
40
00
E0
40
40
40
40
40
40
40
40
40
40
E0
ENDCHAR
STARTCHAR Iacute
ENCODING 205
SWIDTH 200 0
DWIDTH 4 0
BBX 3 15 0 0
BITMAP
20
40
00
E0
40
40
40
40
40
40
40
40
40
40
E0
ENDCHAR
STARTCHAR Icircumflex
ENCODING 206
SWIDTH 200 0
DWIDTH 4 0
BBX 3 15 0 0
BITMAP
40
A0
00
E0
40
40
40
40
40
40
40
40
40
40
E0
ENDCHAR
STARTCHAR Idieresis
ENCODING 207
SWIDTH 200 0
DWIDTH 4 0
BBX 5 14 -1 0
BITMAP
D8
00
70
20
20
20
20
20
20
20
20
20
20
70
ENDCHAR
STARTCHAR Eth
ENCODING 208
SWIDTH 450 0
DWIDTH 10 0
BBX 9 12 0 0
BITMAP
FC00
4700
4100
4080
4080
E080
E080
4080
4080
4100
4700
FC00
ENDCHAR
STARTCHAR Ntilde
ENCODING 209
SWIDTH 500 0
DWIDTH 11 0
BBX 10 15 0 0
BITMAP
3C80
4F00
0000
C1C0
6080
6080
5080
5080
4C80
4C80
4C80
4680
4680
4180
E080
ENDCHAR
STARTCHAR Ograve
ENCODING 210
SWIDTH 500 0
DWIDTH 11 0
BBX 10 15 0 0
BITMAP
1000
0C00
0000
1E00
6180
4080
8040
8040
8040
8040
8040
8040
4080
6180
1E00
ENDCHAR
STARTCHAR Oacute
ENCODING 211
SWIDTH 500 0
DWIDTH 11 0
BBX 10 15 0 0
BITMAP
0600
0C00
0000
1E00
6180
4080
8040
8040
8040
8040
8040
8040
4080
6180
1E00
ENDCHAR
STARTCHAR Ocircumflex
ENCODING 212
SWIDTH 500 0
DWIDTH 11 0
BBX 10 15 0 0
BITMAP
0C00
1600
0000
1E00
6180
4080
8040
8040
8040
8040
8040
8040
4080
6180
1E00
ENDCHAR
STARTCHAR Otilde
ENCODING 213
SWIDTH 500 0
DWIDTH 11 0
BBX 10 15 0 0
BITMAP
1D00
2E00
0000
1E00
6180
4080
8040
8040
8040
8040
8040
8040
4080
6180
1E00
ENDCHAR
STARTCHAR Odieresis
ENCODING 214
SWIDTH 500 0
DWIDTH 11 0
BBX 10 14 0 0
BITMAP
3700
0000
1E00
6180
4080
8040
8040
8040
8040
8040
8040
4080
6180
1E00
ENDCHAR
STARTCHAR multiply
ENCODING 215
SWIDTH 400 0
DWIDTH 9 0
BBX 8 8 0 1
BITMAP
81
46
2C
3C
10
2C
46
81
ENDCHAR
STARTCHAR Oslash
ENCODING 216
SWIDTH 500 0
DWIDTH 11 0
BBX 10 12 0 0
BITMAP
1E40
6180
4080
8140
8640
8C40
9C40
9040
A040
4080
6180
9E00
ENDCHAR
STARTCHAR Ugrave
ENCODING 217
SWIDTH 550 0
DWIDTH 12 0
BBX 11 15 0 0
BITMAP
0C00
0600
0000
E0E0
4040
4040
4040
4040
4040
4040
4040
4040
2080
3180
0E00
ENDCHAR
STARTCHAR Uacute
ENCODING 218
SWIDTH 550 0
DWIDTH 12 0
BBX 11 15 0 0
BITMAP
0600
0C00
0000
E0E0
4040
4040
4040
4040
4040
4040
4040
4040
2080
3180
0E00
ENDCHAR
STARTCHAR Ucircumflex
ENCODING 219
SWIDTH 550 0
DWIDTH 12 0
BBX 11 15 0 0
BITMAP
0E00
1100
0000
E0E0
4040
4040
4040
4040
4040
4040
4040
4040
2080
3180
0E00
ENDCHAR
STARTCHAR Udieresis
ENCODING 220
SWIDTH 550 0
DWIDTH 12 0
BBX 11 14 0 0
BITMAP
3180
0000
E0E0
4040
4040
4040
4040
4040
4040
4040
4040
2080
3180
0E00
ENDCHAR
STARTCHAR Yacute
ENCODING 221
SWIDTH 500 0
DWIDTH 11 0
BBX 10 15 0 0
BITMAP
0600
0C00
0000
E1C0
4080
2100
2100
1600
0C00
0C00
0C00
0C00
0C00
0C00
1E00
ENDCHAR
STARTCHAR Thorn
ENCODING 222
SWIDTH 450 0
DWIDTH 10 0
BBX 9 12 0 0
BITMAP
E000
4000
7E00
4100
4080
4080
4080
4080
4100
7E00
4000
E000
ENDCHAR
STARTCHAR germandbls
ENCODING 223
SWIDTH 450 0
DWIDTH 10 0
BBX 9 12 0 0
BITMAP
1E00
2100
4080
4080
4100
4E00
4F00
4100
4080
4080
4100
CE00
ENDCHAR
STARTCHAR agrave
ENCODING 224
SWIDTH 400 0
DWIDTH 9 0
BBX 8 12 0 0
BITMAP
20
10
00
3C
46
06
3E
3E
46
86
8E
77
ENDCHAR
STARTCHAR aacute
ENCODING 225
SWIDTH 400 0
DWIDTH 9 0
BBX 8 12 0 0
BITMAP
0C
10
00
3C
46
06
3E
3E
46
86
8E
77
ENDCHAR
STARTCHAR acircumflex
ENCODING 226
SWIDTH 400 0
DWIDTH 9 0
BBX 8 12 0 0
BITMAP
10
2C
00
3C
46
06
3E
3E
46
86
8E
77
ENDCHAR
STARTCHAR atilde
ENCODING 227
SWIDTH 400 0
DWIDTH 9 0
BBX 8 12 0 0
BITMAP
36
5C
00
3C
46
06
3E
3E
46
86
8E
77
ENDCHAR
STARTCHAR adieresis
ENCODING 228
SWIDTH 400 0
DWIDTH 9 0
BBX 8 11 0 0
BITMAP
6E
00
3C
46
06
3E
3E
46
86
8E
77
ENDCHAR
STARTCHAR aring
ENCODING 229
SWIDTH 400 0
DWIDTH 9 0
BBX 8 13 0 0
BITMAP
3C
46
3C
00
3C
46
06
3E
3E
46
86
8E
77
ENDCHAR
STARTCHAR ae
ENCODING 230
SWIDTH 650 0
DWIDTH 14 0
BBX 13 9 0 0
BITMAP
3CE0
4710
0608
3FF8
3FF8
4600
8600
8D10
70E0
ENDCHAR
STARTCHAR ccedilla
ENCODING 231
SWIDTH 400 0
DWIDTH 9 0
BBX 8 13 0 -4
BITMAP
3D
47
81
81
80
80
81
46
3C
10
0C
2C
10
ENDCHAR
STARTCHAR egrave
ENCODING 232
SWIDTH 400 0
DWIDTH 9 0
BBX 8 12 0 0
BITMAP
20
10
00
3C
46
81
FF
FF
80
80
46
3C
ENDCHAR
STARTCHAR eacute
ENCODING 233
SWIDTH 400 0
DWIDTH 9 0
BBX 8 12 0 0
BITMAP
0C
10
00
3C
46
81
FF
FF
80
80
46
3C
ENDCHAR
STARTCHAR ecircumflex
ENCODING 234
SWIDTH 400 0
DWIDTH 9 0
BBX 8 12 0 0
BITMAP
10
2C
00
3C
46
81
FF
FF
80
80
46
3C
ENDCHAR
STARTCHAR edieresis
ENCODING 235
SWIDTH 400 0
DWIDTH 9 0
BBX 8 11 0 0
BITMAP
6E
00
3C
46
81
FF
FF
80
80
46
3C
ENDCHAR
STARTCHAR igrave
ENCODING 236
SWIDTH 200 0
DWIDTH 4 0
BBX 3 13 0 0
BITMAP
80
40
00
00
C0
40
40
40
40
40
40
40
E0
ENDCHAR
STARTCHAR iacute
ENCODING 237
SWIDTH 200 0
DWIDTH 4 0
BBX 3 13 0 0
BITMAP
20
40
00
00
C0
40
40
40
40
40
40
40
E0
ENDCHAR
STARTCHAR icircumflex
ENCODING 238
SWIDTH 200 0
DWIDTH 4 0
BBX 3 13 0 0
BITMAP
40
A0
00
00
C0
40
40
40
40
40
40
40
E0
ENDCHAR
STARTCHAR idieresis
ENCODING 239
SWIDTH 200 0
DWIDTH 4 0
BBX 5 12 -1 0
BITMAP
D8
00
00
60
20
20
20
20
20
20
20
70
ENDCHAR
STARTCHAR eth
ENCODING 240
SWIDTH 400 0
DWIDTH 9 0
BBX 8 13 0 0
BITMAP
71
0E
16
01
3D
47
81
81
81
81
81
46
3C
ENDCHAR
STARTCHAR ntilde
ENCODING 241
SWIDTH 450 0
DWIDTH 10 0
BBX 9 12 0 0
BITMAP
3100
4E00
0000
DC00
6600
4100
4100
4100
4100
4100
4100
E780
ENDCHAR
STARTCHAR ograve
ENCODING 242
SWIDTH 400 0
DWIDTH 9 0
BBX 8 12 0 0
BITMAP
20
10
00
3C
46
81
81
81
81
81
46
3C
ENDCHAR
STARTCHAR oacute
ENCODING 243
SWIDTH 400 0
DWIDTH 9 0
BBX 8 12 0 0
BITMAP
0C
10
00
3C
46
81
81
81
81
81
46
3C
ENDCHAR
STARTCHAR ocircumflex
ENCODING 244
SWIDTH 400 0
DWIDTH 9 0
BBX 8 12 0 0
BITMAP
10
2C
00
3C
46
81
81
81
81
81
46
3C
ENDCHAR
STARTCHAR otilde
ENCODING 245
SWIDTH 400 0
DWIDTH 9 0
BBX 8 12 0 0
BITMAP
36
5C
00
3C
46
81
81
81
81
81
46
3C
ENDCHAR
STARTCHAR odieresis
ENCODING 246
SWIDTH 400 0
DWIDTH 9 0
BBX 8 11 0 0
BITMAP
6E
00
3C
46
81
81
81
81
81
46
3C
ENDCHAR
STARTCHAR divide
ENCODING 247
SWIDTH 400 0
DWIDTH 9 0
BBX 8 8 0 1
BITMAP
10
10
00
FF
FF
00
10
10
ENDCHAR
STARTCHAR oslash
ENCODING 248
SWIDTH 400 0
DWIDTH 9 0
BBX 8 9 0 0
BITMAP
3D
46
8D
9D
91
91
A1
46
BC
ENDCHAR
STARTCHAR ugrave
ENCODING 249
SWIDTH 450 0
DWIDTH 10 0
BBX 9 12 0 0
BITMAP
2000
1000
0000
C700
4100
4100
4100
4100
4100
4100
2700
1D80
ENDCHAR
STARTCHAR uacute
ENCODING 250
SWIDTH 450 0
DWIDTH 10 0
BBX 9 12 0 0
BITMAP
0C00
1000
0000
C700
4100
4100
4100
4100
4100
4100
2700
1D80
ENDCHAR
STARTCHAR ucircumflex
ENCODING 251
SWIDTH 450 0
DWIDTH 10 0
BBX 9 12 0 0
BITMAP
1000
2C00
0000
C700
4100
4100
4100
4100
4100
4100
2700
1D80
ENDCHAR
STARTCHAR udieresis
ENCODING 252
SWIDTH 450 0
DWIDTH 10 0
BBX 9 11 0 0
BITMAP
6E00
0000
C700
4100
4100
4100
4100
4100
4100
2700
1D80
ENDCHAR
STARTCHAR yacute
ENCODING 253
SWIDTH 400 0
DWIDTH 9 0
BBX 8 16 0 -4
BITMAP
0C
10
00
EF
46
46
6E
2C
2C
2C
10
10
20
20
40
80
ENDCHAR
STARTCHAR thorn
ENCODING 254
SWIDTH 450 0
DWIDTH 10 0
BBX 9 17 0 -4
BITMAP
C000
4000
4000
4000
5E00
6100
4080
4080
4080
4080
4080
6100
5E00
4000
4000
4000
E000
ENDCHAR
STARTCHAR ydieresis
ENCODING 255
SWIDTH 400 0
DWIDTH 9 0
BBX 8 15 0 -4
BITMAP
6E
00
EF
46
46
6E
2C
2C
2C
10
10
20
20
40
80
ENDCHAR
STARTCHAR Amacron
ENCODING 256
SWIDTH 500 0
DWIDTH 11 0
BBX 10 14 0 0
BITMAP
3F00
0000
1C00
0C00
1600
1600
1600
2100
3F00
3F00
2100
4080
4080
E1C0
ENDCHAR
STARTCHAR amacron
ENCODING 257
SWIDTH 400 0
DWIDTH 9 0
BBX 8 11 0 0
BITMAP
7E
00
3C
46
06
3E
3E
46
86
8E
77
ENDCHAR
STARTCHAR Abreve
ENCODING 258
SWIDTH 500 0
DWIDTH 11 0
BBX 10 15 0 0
BITMAP
2100
1E00
0000
1C00
0C00
1600
1600
1600
2100
3F00
3F00
2100
4080
4080
E1C0
ENDCHAR
STARTCHAR abreve
ENCODING 259
SWIDTH 400 0
DWIDTH 9 0
BBX 8 12 0 0
BITMAP
46
3C
00
3C
46
06
3E
3E
46
86
8E
77
ENDCHAR
STARTCHAR Aogonek
ENCODING 260
SWIDTH 500 0
DWIDTH 11 0
BBX 10 16 0 -4
BITMAP
1C00
0C00
1600
1600
1600
2100
3F00
3F00
2100
4080
4080
E1C0
0C00
1000
1600
0C00
ENDCHAR
STARTCHAR aogonek
ENCODING 261
SWIDTH 400 0
DWIDTH 9 0
BBX 8 13 0 -4
BITMAP
3C
46
06
3E
3E
46
86
8E
77
20
40
50
20
ENDCHAR
STARTCHAR Cacute
ENCODING 262
SWIDTH 450 0
DWIDTH 10 0
BBX 9 15 0 0
BITMAP
0600
0C00
0000
1E80
6180
4080
8000
8000
8000
8000
8000
8000
4080
6180
1E00
ENDCHAR
STARTCHAR cacute
ENCODING 263
SWIDTH 400 0
DWIDTH 9 0
BBX 8 12 0 0
BITMAP
0C
10
00
3D
47
81
81
80
80
81
46
3C
ENDCHAR
STARTCHAR Ccircumflex
ENCODING 264
SWIDTH 450 0
DWIDTH 10 0
BBX 9 15 0 0
BITMAP
0C00
1600
0000
1E80
6180
4080
8000
8000
8000
8000
8000
8000
4080
6180
1E00
ENDCHAR
STARTCHAR ccircumflex
ENCODING 265
SWIDTH 400 0
DWIDTH 9 0
BBX 8 12 0 0
BITMAP
10
2C
00
3D
47
81
81
80
80
81
46
3C
ENDCHAR
STARTCHAR Cdotaccent
ENCODING 266
SWIDTH 450 0
DWIDTH 10 0
BBX 9 14 0 0
BITMAP
1C00
0000
1E80
6180
4080
8000
8000
8000
8000
8000
8000
4080
6180
1E00
ENDCHAR
STARTCHAR cdotaccent
ENCODING 267
SWIDTH 400 0
DWIDTH 9 0
BBX 8 11 0 0
BITMAP
30
00
3D
47
81
81
80
80
81
46
3C
ENDCHAR
STARTCHAR Ccaron
ENCODING 268
SWIDTH 450 0
DWIDTH 10 0
BBX 9 15 0 0
BITMAP
1600
0C00
0000
1E80
6180
4080
8000
8000
8000
8000
8000
8000
4080
6180
1E00
ENDCHAR
STARTCHAR ccaron
ENCODING 269
SWIDTH 400 0
DWIDTH 9 0
BBX 8 12 0 0
BITMAP
2C
10
00
3D
47
81
81
80
80
81
46
3C
ENDCHAR
STARTCHAR Dcaron
ENCODING 270
SWIDTH 450 0
DWIDTH 10 0
BBX 9 15 0 0
BITMAP
2C00
1000
0000
FC00
4700
4100
4080
4080
4080
4080
4080
4080
4100
4700
FC00
ENDCHAR
STARTCHAR dcaron
ENCODING 271
SWIDTH 450 0
DWIDTH 10 0
BBX 11 13 0 0
BITMAP
0760
0160
0120
0140
3D00
4700
8100
8100
8100
8100
8100
4700
3D80
ENDCHAR
STARTCHAR Dcroat
ENCODING 272
SWIDTH 450 0
DWIDTH 10 0
BBX 9 12 0 0
BITMAP
FC00
4700
4100
4080
4080
E080
E080
4080
4080
4100
4700
FC00
ENDCHAR
STARTCHAR dcroat
ENCODING 273
SWIDTH 450 0
DWIDTH 10 0
BBX 9 13 0 0
BITMAP
0700
0100
0780
0100
3D00
4700
8100
8100
8100
8100
8100
4700
3D80
ENDCHAR
STARTCHAR Emacron
ENCODING 274
SWIDTH 450 0
DWIDTH 10 0
BBX 9 14 0 0
BITMAP
3E00
0000
FF80
4080
4000
4000
4600
7E00
7E00
4600
4000
4000
4080
FF80
ENDCHAR
STARTCHAR emacron
ENCODING 275
SWIDTH 400 0
DWIDTH 9 0
BBX 8 11 0 0
BITMAP
7E
00
3C
46
81
FF
FF
80
80
46
3C
ENDCHAR
STARTCHAR Ebreve
ENCODING 276
SWIDTH 450 0
DWIDTH 10 0
BBX 9 15 0 0
BITMAP
4100
3E00
0000
FF80
4080
4000
4000
4600
7E00
7E00
4600
4000
4000
4080
FF80
ENDCHAR
STARTCHAR ebreve
ENCODING 277
SWIDTH 400 0
DWIDTH 9 0
BBX 8 12 0 0
BITMAP
46
3C
00
3C
46
81
FF
FF
80
80
46
3C
ENDCHAR
STARTCHAR Edotaccent
ENCODING 278
SWIDTH 450 0
DWIDTH 10 0
BBX 9 14 0 0
BITMAP
1C00
0000
FF80
4080
4000
4000
4600
7E00
7E00
4600
4000
4000
4080
FF80
ENDCHAR
STARTCHAR edotaccent
ENCODING 279
SWIDTH 400 0
DWIDTH 9 0
BBX 8 11 0 0
BITMAP
30
00
3C
46
81
FF
FF
80
80
46
3C
ENDCHAR
STARTCHAR Eogonek
ENCODING 280
SWIDTH 450 0
DWIDTH 10 0
BBX 9 16 0 -4
BITMAP
FF80
4080
4000
4000
4600
7E00
7E00
4600
4000
4000
4080
FF80
0C00
1000
1600
0C00
ENDCHAR
STARTCHAR eogonek
ENCODING 281
SWIDTH 400 0
DWIDTH 9 0
BBX 8 13 0 -4
BITMAP
3C
46
81
FF
FF
80
80
46
3C
10
20
2C
10
ENDCHAR
STARTCHAR Ecaron
ENCODING 282
SWIDTH 450 0
DWIDTH 10 0
BBX 9 15 0 0
BITMAP
2600
1C00
0000
FF80
4080
4000
4000
4600
7E00
7E00
4600
4000
4000
4080
FF80
ENDCHAR
STARTCHAR ecaron
ENCODING 283
SWIDTH 400 0
DWIDTH 9 0
BBX 8 12 0 0
BITMAP
2C
10
00
3C
46
81
FF
FF
80
80
46
3C
ENDCHAR
STARTCHAR Gcircumflex
ENCODING 284
SWIDTH 450 0
DWIDTH 10 0
BBX 9 15 0 0
BITMAP
0C00
1600
0000
1E80
6180
4080
8000
8000
8780
8780
8080
8080
4080
6180
1E80
ENDCHAR
STARTCHAR gcircumflex
ENCODING 285
SWIDTH 450 0
DWIDTH 10 0
BBX 9 16 0 -4
BITMAP
1000
2C00
0000
3D80
4700
8100
8100
8100
8100
8100
4700
3D00
0100
0100
0600
3C00
ENDCHAR
STARTCHAR Gbreve
ENCODING 286
SWIDTH 450 0
DWIDTH 10 0
BBX 9 15 0 0
BITMAP
2100
1E00
0000
1E80
6180
4080
8000
8000
8780
8780
8080
8080
4080
6180
1E80
ENDCHAR
STARTCHAR gbreve
ENCODING 287
SWIDTH 450 0
DWIDTH 10 0
BBX 9 16 0 -4
BITMAP
4600
3C00
0000
3D80
4700
8100
8100
8100
8100
8100
4700
3D00
0100
0100
0600
3C00
ENDCHAR
STARTCHAR Gdotaccent
ENCODING 288
SWIDTH 450 0
DWIDTH 10 0
BBX 9 14 0 0
BITMAP
1C00
0000
1E80
6180
4080
8000
8000
8780
8780
8080
8080
4080
6180
1E80
ENDCHAR
STARTCHAR gdotaccent
ENCODING 289
SWIDTH 450 0
DWIDTH 10 0
BBX 9 15 0 -4
BITMAP
3000
0000
3D80
4700
8100
8100
8100
8100
8100
4700
3D00
0100
0100
0600
3C00
ENDCHAR
STARTCHAR Gcommaaccent
ENCODING 290
SWIDTH 450 0
DWIDTH 10 0
BBX 9 16 0 -4
BITMAP
1E80
6180
4080
8000
8000
8780
8780
8080
8080
4080
6180
1E80
0000
0C00
0C00
1000
ENDCHAR
STARTCHAR gcommaaccent
ENCODING 291
SWIDTH 450 0
DWIDTH 10 0
BBX 9 17 0 -4
BITMAP
0C00
1000
1000
0000
3D80
4700
8100
8100
8100
8100
8100
4700
3D00
0100
0100
0600
3C00
ENDCHAR
STARTCHAR Hcircumflex
ENCODING 292
SWIDTH 500 0
DWIDTH 11 0
BBX 10 15 0 0
BITMAP
1600
0C00
0000
E1C0
4080
4080
4080
4080
7F80
7F80
4080
4080
4080
4080
E1C0
ENDCHAR
STARTCHAR hcircumflex
ENCODING 293
SWIDTH 450 0
DWIDTH 10 0
BBX 9 15 0 0
BITMAP
2C00
1000
C000
4000
4000
4000
5C00
6600
4100
4100
4100
4100
4100
4100
E780
ENDCHAR
STARTCHAR Hbar
ENCODING 294
SWIDTH 500 0
DWIDTH 11 0
BBX 10 12 0 0
BITMAP
E1C0
4080
FFC0
4080
4080
7F80
7F80
4080
4080
4080
4080
E1C0
ENDCHAR
STARTCHAR hbar
ENCODING 295
SWIDTH 450 0
DWIDTH 10 0
BBX 9 13 0 0
BITMAP
C000
4000
E000
4000
5C00
6600
4100
4100
4100
4100
4100
4100
E780
ENDCHAR
STARTCHAR Itilde
ENCODING 296
SWIDTH 200 0
DWIDTH 4 0
BBX 5 15 -1 0
BITMAP
68
B0
00
70
20
20
20
20
20
20
20
20
20
20
70
ENDCHAR
STARTCHAR itilde
ENCODING 297
SWIDTH 200 0
DWIDTH 4 0
BBX 5 13 -1 0
BITMAP
68
B0
00
00
60
20
20
20
20
20
20
20
70
ENDCHAR
STARTCHAR Imacron
ENCODING 298
SWIDTH 200 0
DWIDTH 4 0
BBX 5 14 -1 0
BITMAP
F8
00
70
20
20
20
20
20
20
20
20
20
20
70
ENDCHAR
STARTCHAR imacron
ENCODING 299
SWIDTH 200 0
DWIDTH 4 0
BBX 5 12 -1 0
BITMAP
F8
00
00
60
20
20
20
20
20
20
20
70
ENDCHAR
STARTCHAR Ibreve
ENCODING 300
SWIDTH 200 0
DWIDTH 4 0
BBX 5 15 -1 0
BITMAP
88
70
00
70
20
20
20
20
20
20
20
20
20
20
70
ENDCHAR
STARTCHAR ibreve
ENCODING 301
SWIDTH 200 0
DWIDTH 4 0
BBX 5 13 -1 0
BITMAP
88
70
00
00
60
20
20
20
20
20
20
20
70
ENDCHAR
STARTCHAR Iogonek
ENCODING 302
SWIDTH 200 0
DWIDTH 4 0
BBX 3 16 0 -4
BITMAP
E0
40
40
40
40
40
40
40
40
40
40
E0
40
80
A0
40
ENDCHAR
STARTCHAR iogonek
ENCODING 303
SWIDTH 200 0
DWIDTH 4 0
BBX 3 17 0 -4
BITMAP
40
40
00
00
C0
40
40
40
40
40
40
40
E0
40
80
A0
40
ENDCHAR
STARTCHAR Idotaccent
ENCODING 304
SWIDTH 200 0
DWIDTH 4 0
BBX 3 14 0 0
BITMAP
C0
00
E0
40
40
40
40
40
40
40
40
40
40
E0
ENDCHAR
STARTCHAR dotlessi
ENCODING 305
SWIDTH 200 0
DWIDTH 4 0
BBX 3 9 0 0
BITMAP
C0
40
40
40
40
40
40
40
E0
ENDCHAR
STARTCHAR IJ
ENCODING 306
SWIDTH 500 0
DWIDTH 11 0
BBX 10 12 0 0
BITMAP
E1C0
4080
4080
4080
4080
4080
4080
4080
4080
4080
4100
EE00
ENDCHAR
STARTCHAR ij
ENCODING 307
SWIDTH 350 0
DWIDTH 8 0
BBX 7 17 0 -4
BITMAP
46
46
00
00
CE
46
46
46
46
46
46
46
E6
06
06
0C
30
ENDCHAR
STARTCHAR Jcircumflex
ENCODING 308
SWIDTH 450 0
DWIDTH 10 0
BBX 9 15 0 0
BITMAP
0100
0680
0000
0780
0100
0100
0100
0100
0100
0100
0100
0100
8600
CE00
3000
ENDCHAR
STARTCHAR jcircumflex
ENCODING 309
SWIDTH 150 0
DWIDTH 3 0
BBX 5 17 -2 -4
BITMAP
10
28
00
00
30
10
10
10
10
10
10
10
10
10
10
20
C0
ENDCHAR
STARTCHAR Kcommaaccent
ENCODING 310
SWIDTH 450 0
DWIDTH 10 0
BBX 9 16 0 -4
BITMAP
E780
4100
4600
4C00
5000
6C00
6E00
4600
4600
4100
4100
E780
0000
1000
1000
2000
ENDCHAR
STARTCHAR kcommaaccent
ENCODING 311
SWIDTH 450 0
DWIDTH 10 0
BBX 9 17 0 -4
BITMAP
C000
4000
4000
4000
4F00
4600
4C00
5C00
5000
6C00
4600
4100
E780
0000
1000
1000
2000
ENDCHAR
STARTCHAR kgreenlandic
ENCODING 312
SWIDTH 450 0
DWIDTH 10 0
BBX 9 9 0 0
BITMAP
CF00
4600
4C00
5C00
5000
6C00
4600
4100
E780
ENDCHAR
STARTCHAR Lacute
ENCODING 313
SWIDTH 450 0
DWIDTH 10 0
BBX 9 15 0 0
BITMAP
2000
4000
0000
E000
4000
4000
4000
4000
4000
4000
4000
4000
4000
4080
FF80
ENDCHAR
STARTCHAR lacute
ENCODING 314
SWIDTH 200 0
DWIDTH 4 0
BBX 3 17 0 0
BITMAP
20
20
40
00
C0
40
40
40
40
40
40
40
40
40
40
40
E0
ENDCHAR
STARTCHAR Lcommaaccent
ENCODING 315
SWIDTH 450 0
DWIDTH 10 0
BBX 9 16 0 -4
BITMAP
E000
4000
4000
4000
4000
4000
4000
4000
4000
4000
4080
FF80
0000
1000
1000
2000
ENDCHAR
STARTCHAR lcommaaccent
ENCODING 316
SWIDTH 200 0
DWIDTH 4 0
BBX 3 17 0 -4
BITMAP
C0
40
40
40
40
40
40
40
40
40
40
40
E0
00
40
40
80
ENDCHAR
STARTCHAR Lcaron
ENCODING 317
SWIDTH 450 0
DWIDTH 10 0
BBX 9 15 0 0
BITMAP
A000
4000
0000
E000
4000
4000
4000
4000
4000
4000
4000
4000
4000
4080
FF80
ENDCHAR
STARTCHAR lcaron
ENCODING 318
SWIDTH 200 0
DWIDTH 4 0
BBX 6 13 0 0
BITMAP
DC
5C
4C
50
40
40
40
40
40
40
40
40
E0
ENDCHAR
STARTCHAR Ldot
ENCODING 319
SWIDTH 450 0
DWIDTH 10 0
BBX 9 12 0 0
BITMAP
E000
4000
4000
4000
4000
5C00
5C00
4000
4000
4000
4080
FF80
ENDCHAR
STARTCHAR ldot
ENCODING 320
SWIDTH 200 0
DWIDTH 4 0
BBX 6 13 0 0
BITMAP
C0
40
40
40
40
40
5C
5C
40
40
40
40
E0
ENDCHAR
STARTCHAR Lslash
ENCODING 321
SWIDTH 450 0
DWIDTH 10 0
BBX 9 12 0 0
BITMAP
E000
4000
4000
4000
6000
C000
C000
4000
4000
4000
4080
FF80
ENDCHAR
STARTCHAR lslash
ENCODING 322
SWIDTH 200 0
DWIDTH 4 0
BBX 3 13 0 0
BITMAP
C0
40
40
40
40
60
C0
C0
40
40
40
40
E0
ENDCHAR
STARTCHAR Nacute
ENCODING 323
SWIDTH 500 0
DWIDTH 11 0
BBX 10 15 0 0
BITMAP
0600
0C00
0000
C1C0
6080
6080
5080
5080
4C80
4C80
4C80
4680
4680
4180
E080
ENDCHAR
STARTCHAR nacute
ENCODING 324
SWIDTH 450 0
DWIDTH 10 0
BBX 9 12 0 0
BITMAP
0C00
1000
0000
DC00
6600
4100
4100
4100
4100
4100
4100
E780
ENDCHAR
STARTCHAR Ncommaaccent
ENCODING 325
SWIDTH 500 0
DWIDTH 11 0
BBX 10 16 0 -4
BITMAP
C1C0
6080
6080
5080
5080
4C80
4C80
4C80
4680
4680
4180
E080
0000
0C00
0C00
1000
ENDCHAR
STARTCHAR ncommaaccent
ENCODING 326
SWIDTH 450 0
DWIDTH 10 0
BBX 9 13 0 -4
BITMAP
DC00
6600
4100
4100
4100
4100
4100
4100
E780
0000
0C00
0C00
1000
ENDCHAR
STARTCHAR Ncaron
ENCODING 327
SWIDTH 500 0
DWIDTH 11 0
BBX 10 15 0 0
BITMAP
1600
0C00
0000
C1C0
6080
6080
5080
5080
4C80
4C80
4C80
4680
4680
4180
E080
ENDCHAR
STARTCHAR ncaron
ENCODING 328
SWIDTH 450 0
DWIDTH 10 0
BBX 9 12 0 0
BITMAP
2600
1C00
0000
DC00
6600
4100
4100
4100
4100
4100
4100
E780
ENDCHAR
STARTCHAR napostrophe
ENCODING 329
SWIDTH 450 0
DWIDTH 10 0
BBX 11 14 -2 0
BITMAP
C000
C000
4000
8000
0000
3700
1980
1040
1040
1040
1040
1040
1040
39E0
ENDCHAR
STARTCHAR Eng
ENCODING 330
SWIDTH 500 0
DWIDTH 11 0
BBX 10 16 0 -4
BITMAP
C1C0
6080
6080
5080
5080
4C80
4C80
4C80
4680
4680
4180
E080
0080
0080
0100
1E00
ENDCHAR
STARTCHAR eng
ENCODING 331
SWIDTH 450 0
DWIDTH 10 0
BBX 8 13 0 -4
BITMAP
DC
66
41
41
41
41
41
41
E1
01
01
06
3C
ENDCHAR
STARTCHAR Omacron
ENCODING 332
SWIDTH 500 0
DWIDTH 11 0
BBX 10 14 0 0
BITMAP
3F00
0000
1E00
6180
4080
8040
8040
8040
8040
8040
8040
4080
6180
1E00
ENDCHAR
STARTCHAR omacron
ENCODING 333
SWIDTH 400 0
DWIDTH 9 0
BBX 8 11 0 0
BITMAP
7E
00
3C
46
81
81
81
81
81
46
3C
ENDCHAR
STARTCHAR Obreve
ENCODING 334
SWIDTH 500 0
DWIDTH 11 0
BBX 10 15 0 0
BITMAP
2100
1E00
0000
1E00
6180
4080
8040
8040
8040
8040
8040
8040
4080
6180
1E00
ENDCHAR
STARTCHAR obreve
ENCODING 335
SWIDTH 400 0
DWIDTH 9 0
BBX 8 12 0 0
BITMAP
46
3C
00
3C
46
81
81
81
81
81
46
3C
ENDCHAR
STARTCHAR Ohungarumlaut
ENCODING 336
SWIDTH 500 0
DWIDTH 11 0
BBX 10 15 0 0
BITMAP
0D00
1600
0000
1E00
6180
4080
8040
8040
8040
8040
8040
8040
4080
6180
1E00
ENDCHAR
STARTCHAR ohungarumlaut
ENCODING 337
SWIDTH 400 0
DWIDTH 9 0
BBX 8 12 0 0
BITMAP
16
2C
00
3C
46
81
81
81
81
81
46
3C
ENDCHAR
STARTCHAR OE
ENCODING 338
SWIDTH 650 0
DWIDTH 14 0
BBX 13 12 0 0
BITMAP
1FF8
6608
4600
8600
8620
87E0
87E0
8620
8600
4600
6608
1FF8
ENDCHAR
STARTCHAR oe
ENCODING 339
SWIDTH 700 0
DWIDTH 15 0
BBX 14 9 0 0
BITMAP
3C70
4688
8104
81FC
81FC
8100
8100
4688
3C70
ENDCHAR
STARTCHAR Racute
ENCODING 340
SWIDTH 450 0
DWIDTH 10 0
BBX 9 15 0 0
BITMAP
0C00
1000
0000
FE00
4100
4080
4080
4100
7E00
7E00
4C00
4600
4100
4100
E080
ENDCHAR
STARTCHAR racute
ENCODING 341
SWIDTH 400 0
DWIDTH 9 0
BBX 8 12 0 0
BITMAP
0C
10
00
DE
61
40
40
40
40
40
40
E0
ENDCHAR
STARTCHAR Rcommaaccent
ENCODING 342
SWIDTH 450 0
DWIDTH 10 0
BBX 9 16 0 -4
BITMAP
FE00
4100
4080
4080
4100
7E00
7E00
4C00
4600
4100
4100
E080
0000
0C00
0C00
1000
ENDCHAR
STARTCHAR rcommaaccent
ENCODING 343
SWIDTH 400 0
DWIDTH 9 0
BBX 8 13 0 -4
BITMAP
DE
61
40
40
40
40
40
40
E0
00
10
10
20
ENDCHAR
STARTCHAR Rcaron
ENCODING 344
SWIDTH 450 0
DWIDTH 10 0
BBX 9 15 0 0
BITMAP
2C00
1000
0000
FE00
4100
4080
4080
4100
7E00
7E00
4C00
4600
4100
4100
E080
ENDCHAR
STARTCHAR rcaron
ENCODING 345
SWIDTH 400 0
DWIDTH 9 0
BBX 8 12 0 0
BITMAP
2C
10
00
DE
61
40
40
40
40
40
40
E0
ENDCHAR
STARTCHAR Sacute
ENCODING 346
SWIDTH 400 0
DWIDTH 9 0
BBX 8 15 0 0
BITMAP
0C
10
00
3D
47
81
80
40
3C
3E
06
01
81
C6
BC
ENDCHAR
STARTCHAR sacute
ENCODING 347
SWIDTH 350 0
DWIDTH 8 0
BBX 7 12 0 0
BITMAP
10
20
00
76
8E
86
E6
60
1C
86
C6
BC
ENDCHAR
STARTCHAR Scircumflex
ENCODING 348
SWIDTH 400 0
DWIDTH 9 0
BBX 8 15 0 0
BITMAP
10
2C
00
3D
47
81
80
40
3C
3E
06
01
81
C6
BC
ENDCHAR
STARTCHAR scircumflex
ENCODING 349
SWIDTH 350 0
DWIDTH 8 0
BBX 7 12 0 0
BITMAP
30
4C
00
76
8E
86
E6
60
1C
86
C6
BC
ENDCHAR
STARTCHAR Scedilla
ENCODING 350
SWIDTH 400 0
DWIDTH 9 0
BBX 8 16 0 -4
BITMAP
3D
47
81
80
40
3C
3E
06
01
81
C6
BC
10
0C
2C
10
ENDCHAR
STARTCHAR scedilla
ENCODING 351
SWIDTH 350 0
DWIDTH 8 0
BBX 7 13 0 -4
BITMAP
76
8E
86
E6
60
1C
86
C6
BC
10
0C
2C
10
ENDCHAR
STARTCHAR Scaron
ENCODING 352
SWIDTH 400 0
DWIDTH 9 0
BBX 8 15 0 0
BITMAP
2C
10
00
3D
47
81
80
40
3C
3E
06
01
81
C6
BC
ENDCHAR
STARTCHAR scaron
ENCODING 353
SWIDTH 350 0
DWIDTH 8 0
BBX 7 12 0 0
BITMAP
4C
30
00
76
8E
86
E6
60
1C
86
C6
BC
ENDCHAR
STARTCHAR Tcommaaccent
ENCODING 354
SWIDTH 400 0
DWIDTH 9 0
BBX 8 16 0 -4
BITMAP
FF
91
10
10
10
10
10
10
10
10
10
3C
10
0C
2C
10
ENDCHAR
STARTCHAR tcommaaccent
ENCODING 355
SWIDTH 200 0
DWIDTH 4 0
BBX 4 17 0 -4
BITMAP
40
40
40
40
E0
40
40
40
40
40
40
40
30
20
10
50
20
ENDCHAR
STARTCHAR Tcaron
ENCODING 356
SWIDTH 400 0
DWIDTH 9 0
BBX 8 15 0 0
BITMAP
2C
10
00
FF
91
10
10
10
10
10
10
10
10
10
3C
ENDCHAR
STARTCHAR tcaron
ENCODING 357
SWIDTH 200 0
DWIDTH 4 0
BBX 6 13 0 0
BITMAP
5C
5C
4C
50
E0
40
40
40
40
40
40
40
30
ENDCHAR
STARTCHAR Tbar
ENCODING 358
SWIDTH 400 0
DWIDTH 9 0
BBX 8 12 0 0
BITMAP
FF
91
10
10
10
7E
7E
10
10
10
10
3C
ENDCHAR
STARTCHAR tbar
ENCODING 359
SWIDTH 200 0
DWIDTH 4 0
BBX 4 13 0 0
BITMAP
40
40
40
40
E0
40
40
E0
E0
40
40
40
30
ENDCHAR
STARTCHAR Utilde
ENCODING 360
SWIDTH 550 0
DWIDTH 12 0
BBX 11 15 0 0
BITMAP
1C80
2700
0000
E0E0
4040
4040
4040
4040
4040
4040
4040
4040
2080
3180
0E00
ENDCHAR
STARTCHAR utilde
ENCODING 361
SWIDTH 450 0
DWIDTH 10 0
BBX 9 12 0 0
BITMAP
3100
4E00
0000
C700
4100
4100
4100
4100
4100
4100
2700
1D80
ENDCHAR
STARTCHAR Umacron
ENCODING 362
SWIDTH 550 0
DWIDTH 12 0
BBX 11 14 0 0
BITMAP
3F80
0000
E0E0
4040
4040
4040
4040
4040
4040
4040
4040
2080
3180
0E00
ENDCHAR
STARTCHAR umacron
ENCODING 363
SWIDTH 450 0
DWIDTH 10 0
BBX 9 11 0 0
BITMAP
7E00
0000
C700
4100
4100
4100
4100
4100
4100
2700
1D80
ENDCHAR
STARTCHAR Ubreve
ENCODING 364
SWIDTH 550 0
DWIDTH 12 0
BBX 11 15 0 0
BITMAP
2080
1F00
0000
E0E0
4040
4040
4040
4040
4040
4040
4040
4040
2080
3180
0E00
ENDCHAR
STARTCHAR ubreve
ENCODING 365
SWIDTH 450 0
DWIDTH 10 0
BBX 9 12 0 0
BITMAP
4600
3C00
0000
C700
4100
4100
4100
4100
4100
4100
2700
1D80
ENDCHAR
STARTCHAR Uring
ENCODING 366
SWIDTH 550 0
DWIDTH 12 0
BBX 11 15 0 0
BITMAP
0E00
1100
0E00
E0E0
4040
4040
4040
4040
4040
4040
4040
4040
2080
3180
0E00
ENDCHAR
STARTCHAR uring
ENCODING 367
SWIDTH 450 0
DWIDTH 10 0
BBX 9 13 0 0
BITMAP
3C00
4600
3C00
0000
C700
4100
4100
4100
4100
4100
4100
2700
1D80
ENDCHAR
STARTCHAR Uhungarumlaut
ENCODING 368
SWIDTH 550 0
DWIDTH 12 0
BBX 11 15 0 0
BITMAP
0D00
1600
0000
E0E0
4040
4040
4040
4040
4040
4040
4040
4040
2080
3180
0E00
ENDCHAR
STARTCHAR uhungarumlaut
ENCODING 369
SWIDTH 450 0
DWIDTH 10 0
BBX 9 12 0 0
BITMAP
1600
2C00
0000
C700
4100
4100
4100
4100
4100
4100
2700
1D80
ENDCHAR
STARTCHAR Uogonek
ENCODING 370
SWIDTH 550 0
DWIDTH 12 0
BBX 11 16 0 -4
BITMAP
E0E0
4040
4040
4040
4040
4040
4040
4040
4040
2080
3180
0E00
0600
0C00
0D00
0600
ENDCHAR
STARTCHAR uogonek
ENCODING 371
SWIDTH 450 0
DWIDTH 10 0
BBX 9 13 0 -4
BITMAP
C700
4100
4100
4100
4100
4100
4100
2700
1D80
0C00
1000
1600
0C00
ENDCHAR
STARTCHAR Wcircumflex
ENCODING 372
SWIDTH 700 0
DWIDTH 15 0
BBX 14 15 0 0
BITMAP
0100
0680
0000
E01C
4008
4008
2110
2110
2110
37B0
16A0
16A0
16A0
0C40
0C40
ENDCHAR
STARTCHAR wcircumflex
ENCODING 373
SWIDTH 500 0
DWIDTH 11 0
BBX 10 12 0 0
BITMAP
0C00
1600
0000
E1C0
4080
4080
6D80
2D00
2D00
2D00
1600
1600
ENDCHAR
STARTCHAR Ycircumflex
ENCODING 374
SWIDTH 500 0
DWIDTH 11 0
BBX 10 15 0 0
BITMAP
0C00
1600
0000
E1C0
4080
2100
2100
1600
0C00
0C00
0C00
0C00
0C00
0C00
1E00
ENDCHAR
STARTCHAR ycircumflex
ENCODING 375
SWIDTH 400 0
DWIDTH 9 0
BBX 8 16 0 -4
BITMAP
10
2C
00
EF
46
46
6E
2C
2C
2C
10
10
20
20
40
80
ENDCHAR
STARTCHAR Ydieresis
ENCODING 376
SWIDTH 500 0
DWIDTH 11 0
BBX 10 14 0 0
BITMAP
3700
0000
E1C0
4080
2100
2100
1600
0C00
0C00
0C00
0C00
0C00
0C00
1E00
ENDCHAR
STARTCHAR Zacute
ENCODING 377
SWIDTH 400 0
DWIDTH 9 0
BBX 8 15 0 0
BITMAP
0C
10
00
FF
81
06
0C
0C
10
30
20
20
40
81
FF
ENDCHAR
STARTCHAR zacute
ENCODING 378
SWIDTH 350 0
DWIDTH 8 0
BBX 7 12 0 0
BITMAP
10
20
00
FE
86
0C
1C
10
20
40
86
FE
ENDCHAR
STARTCHAR Zdotaccent
ENCODING 379
SWIDTH 400 0
DWIDTH 9 0
BBX 8 14 0 0
BITMAP
1C
00
FF
81
06
0C
0C
10
30
20
20
40
81
FF
ENDCHAR
STARTCHAR zdotaccent
ENCODING 380
SWIDTH 350 0
DWIDTH 8 0
BBX 7 11 0 0
BITMAP
30
00
FE
86
0C
1C
10
20
40
86
FE
ENDCHAR
STARTCHAR Zcaron
ENCODING 381
SWIDTH 400 0
DWIDTH 9 0
BBX 8 15 0 0
BITMAP
2C
10
00
FF
81
06
0C
0C
10
30
20
20
40
81
FF
ENDCHAR
STARTCHAR zcaron
ENCODING 382
SWIDTH 350 0
DWIDTH 8 0
BBX 7 12 0 0
BITMAP
4C
30
00
FE
86
0C
1C
10
20
40
86
FE
ENDCHAR
STARTCHAR longs
ENCODING 383
SWIDTH 200 0
DWIDTH 4 0
BBX 6 13 0 0
BITMAP
1C
20
40
40
C0
40
40
40
40
40
40
40
E0
ENDCHAR
STARTCHAR florin
ENCODING 402
SWIDTH 200 0
DWIDTH 4 0
BBX 9 17 -3 -4
BITMAP
0380
0400
0800
0800
1C00
0800
0800
0800
0800
0800
0800
0800
0800
1000
1000
2000
C000
ENDCHAR
STARTCHAR uni0237
ENCODING 567
SWIDTH 150 0
DWIDTH 3 0
BBX 4 13 -2 -4
BITMAP
30
10
10
10
10
10
10
10
10
10
10
20
C0
ENDCHAR
STARTCHAR uni0250
ENCODING 592
SWIDTH 400 0
DWIDTH 9 0
BBX 8 9 0 0
BITMAP
DE
61
41
47
46
7C
40
46
3C
ENDCHAR
STARTCHAR uni0251
ENCODING 593
SWIDTH 400 0
DWIDTH 9 0
BBX 8 9 0 0
BITMAP
3E
46
86
86
86
86
86
8E
77
ENDCHAR
STARTCHAR uni0252
ENCODING 594
SWIDTH 400 0
DWIDTH 9 0
BBX 8 9 0 0
BITMAP
DE
61
41
41
41
41
41
46
7C
ENDCHAR
STARTCHAR uni0253
ENCODING 595
SWIDTH 450 0
DWIDTH 10 0
BBX 9 13 0 0
BITMAP
1E00
2000
4000
4000
5E00
6100
4080
4080
4080
4080
4080
6100
DE00
ENDCHAR
STARTCHAR uni0254
ENCODING 596
SWIDTH 400 0
DWIDTH 9 0
BBX 8 9 0 0
BITMAP
BC
C6
81
81
01
01
81
46
3C
ENDCHAR
STARTCHAR uni0255
ENCODING 597
SWIDTH 400 0
DWIDTH 9 0
BBX 8 11 0 -2
BITMAP
3D
47
81
81
80
80
86
4D
3E
10
20
ENDCHAR
STARTCHAR uni0256
ENCODING 598
SWIDTH 450 0
DWIDTH 10 0
BBX 11 17 0 -4
BITMAP
0700
0100
0100
0100
3D00
4700
8100
8100
8100
8100
8100
4700
3D00
0100
0100
0080
0060
ENDCHAR
STARTCHAR uni0257
ENCODING 599
SWIDTH 450 0
DWIDTH 10 0
BBX 11 13 0 0
BITMAP
0060
0080
0100
0100
3D00
4700
8100
8100
8100
8100
8100
4700
3D80
ENDCHAR
STARTCHAR uni0258
ENCODING 600
SWIDTH 400 0
DWIDTH 9 0
BBX 8 9 0 0
BITMAP
3C
46
81
FF
FF
01
01
46
3C
ENDCHAR
STARTCHAR uni0259
ENCODING 601
SWIDTH 400 0
DWIDTH 9 0
BBX 8 9 0 0
BITMAP
3C
46
01
01
01
FF
81
46
3C
ENDCHAR
STARTCHAR uni025A
ENCODING 602
SWIDTH 550 0
DWIDTH 12 0
BBX 11 9 0 0
BITMAP
3C00
4600
0100
0140
0140
FFC0
8140
4620
3C00
ENDCHAR
STARTCHAR uni025B
ENCODING 603
SWIDTH 350 0
DWIDTH 8 0
BBX 7 9 0 0
BITMAP
7C
86
80
FC
7C
80
80
86
7C
ENDCHAR
STARTCHAR uni025C
ENCODING 604
SWIDTH 350 0
DWIDTH 8 0
BBX 7 9 0 0
BITMAP
7C
86
06
7E
7C
06
06
86
7C
ENDCHAR
STARTCHAR uni025D
ENCODING 605
SWIDTH 500 0
DWIDTH 11 0
BBX 10 9 0 0
BITMAP
7C00
8680
0780
7F80
7C80
0640
0600
8600
7C00
ENDCHAR
STARTCHAR uni025E
ENCODING 606
SWIDTH 450 0
DWIDTH 10 0
BBX 9 9 0 0
BITMAP
1F00
2080
4080
DF80
9F00
8080
4080
2080
1F00
ENDCHAR
STARTCHAR uni025F
ENCODING 607
SWIDTH 200 0
DWIDTH 4 0
BBX 5 13 -2 -4
BITMAP
38
10
10
10
10
10
10
10
38
10
10
20
C0
ENDCHAR
STARTCHAR uni0260
ENCODING 608
SWIDTH 450 0
DWIDTH 10 0
BBX 11 17 0 -4
BITMAP
0060
0080
0100
0100
3D00
4700
8100
8100
8100
8100
8100
4700
3D00
0100
0100
0600
3C00
ENDCHAR
STARTCHAR uni0261
ENCODING 609
SWIDTH 450 0
DWIDTH 10 0
BBX 9 13 0 -4
BITMAP
1D80
2700
4100
C180
8180
8100
8700
4D00
3100
2100
4100
4600
3C00
ENDCHAR
STARTCHAR uni0262
ENCODING 610
SWIDTH 400 0
DWIDTH 9 0
BBX 8 9 0 0
BITMAP
3D
47
80
8F
8F
81
81
47
3D
ENDCHAR
STARTCHAR uni0263
ENCODING 611
SWIDTH 400 0
DWIDTH 9 0
BBX 8 11 0 -2
BITMAP
EF
46
46
6E
2C
2C
2C
10
10
2C
10
ENDCHAR
STARTCHAR uni0264
ENCODING 612
SWIDTH 400 0
DWIDTH 9 0
BBX 8 9 0 0
BITMAP
6E
91
2C
2C
2C
2C
2C
2C
10
ENDCHAR
STARTCHAR uni0265
ENCODING 613
SWIDTH 450 0
DWIDTH 10 0
BBX 9 13 0 -4
BITMAP
E780
4100
4100
4100
4100
4100
4100
2700
1D00
0100
0100
0100
0180
ENDCHAR
STARTCHAR uni0266
ENCODING 614
SWIDTH 450 0
DWIDTH 10 0
BBX 9 13 0 0
BITMAP
1E00
2000
4000
4000
5C00
6600
4100
4100
4100
4100
4100
4100
E780
ENDCHAR
STARTCHAR uni0267
ENCODING 615
SWIDTH 450 0
DWIDTH 10 0
BBX 8 17 0 -4
BITMAP
1E
20
40
40
5C
66
41
41
41
41
41
41
E1
01
01
06
3C
ENDCHAR
STARTCHAR uni0268
ENCODING 616
SWIDTH 200 0
DWIDTH 4 0
BBX 3 13 0 0
BITMAP
40
40
00
00
C0
40
40
E0
E0
40
40
40
E0
ENDCHAR
STARTCHAR uni0269
ENCODING 617
SWIDTH 200 0
DWIDTH 4 0
BBX 3 9 0 0
BITMAP
C0
40
40
40
40
40
40
40
60
ENDCHAR
STARTCHAR uni026A
ENCODING 618
SWIDTH 200 0
DWIDTH 4 0
BBX 3 9 0 0
BITMAP
E0
40
40
40
40
40
40
40
E0
ENDCHAR
STARTCHAR uni026B
ENCODING 619
SWIDTH 200 0
DWIDTH 4 0
BBX 5 13 -1 0
BITMAP
60
20
20
20
20
68
B0
B0
20
20
20
20
70
ENDCHAR
STARTCHAR uni026C
ENCODING 620
SWIDTH 200 0
DWIDTH 4 0
BBX 4 13 -1 0
BITMAP
60
20
20
20
20
60
A0
F0
70
20
20
20
70
ENDCHAR
STARTCHAR uni026D
ENCODING 621
SWIDTH 200 0
DWIDTH 4 0
BBX 6 17 0 -4
BITMAP
C0
40
40
40
40
40
40
40
40
40
40
40
40
40
40
20
1C
ENDCHAR
STARTCHAR uni026E
ENCODING 622
SWIDTH 450 0
DWIDTH 10 0
BBX 9 17 0 -4
BITMAP
C000
4000
4000
4000
7F80
4100
4600
4E00
4C00
5E00
4100
4080
E080
0080
0080
0100
1E00
ENDCHAR
STARTCHAR uni026F
ENCODING 623
SWIDTH 700 0
DWIDTH 15 0
BBX 14 9 0 0
BITMAP
C718
4108
4108
4108
4108
4108
4108
2698
1C6C
ENDCHAR
STARTCHAR uni0270
ENCODING 624
SWIDTH 700 0
DWIDTH 15 0
BBX 14 13 0 -4
BITMAP
C718
4108
4108
4108
4108
4108
4108
2698
1C68
0008
0008
0008
000C
ENDCHAR
STARTCHAR uni0271
ENCODING 625
SWIDTH 650 0
DWIDTH 14 0
BBX 13 13 0 -4
BITMAP
DC60
6690
4108
4108
4108
4108
4108
4108
E788
0008
0008
0010
00E0
ENDCHAR
STARTCHAR uni0272
ENCODING 626
SWIDTH 450 0
DWIDTH 10 0
BBX 11 13 -2 -4
BITMAP
3700
1980
1040
1040
1040
1040
1040
1040
11E0
1000
1000
2000
C000
ENDCHAR
STARTCHAR uni0273
ENCODING 627
SWIDTH 400 0
DWIDTH 9 0
BBX 11 13 0 -4
BITMAP
DC00
6600
4100
4100
4100
4100
4100
4100
E100
0100
0100
0080
0060
ENDCHAR
STARTCHAR uni0274
ENCODING 628
SWIDTH 450 0
DWIDTH 10 0
BBX 9 9 0 0
BITMAP
C780
6100
5100
5100
5100
4D00
4D00
4700
E100
ENDCHAR
STARTCHAR uni0275
ENCODING 629
SWIDTH 400 0
DWIDTH 9 0
BBX 8 9 0 0
BITMAP
3C
46
81
FF
FF
81
81
46
3C
ENDCHAR
STARTCHAR uni0276
ENCODING 630
SWIDTH 550 0
DWIDTH 12 0
BBX 11 9 0 0
BITMAP
3FE0
4C20
8C80
8F80
8F80
8C80
8C00
4C20
3FE0
ENDCHAR
STARTCHAR uni0277
ENCODING 631
SWIDTH 500 0
DWIDTH 11 0
BBX 10 9 0 0
BITMAP
1E00
2100
4080
CCC0
8C40
8C40
8C40
8C40
7780
ENDCHAR
STARTCHAR uni0278
ENCODING 632
SWIDTH 400 0
DWIDTH 9 0
BBX 8 13 0 -2
BITMAP
3C
10
3C
56
91
91
91
91
91
56
3C
10
3C
ENDCHAR
STARTCHAR uni0279
ENCODING 633
SWIDTH 400 0
DWIDTH 9 0
BBX 8 9 0 0
BITMAP
0F
06
06
06
06
06
06
8E
77
ENDCHAR
STARTCHAR uni027A
ENCODING 634
SWIDTH 400 0
DWIDTH 9 0
BBX 8 13 0 0
BITMAP
0F
06
06
06
06
06
06
06
06
06
06
8E
77
ENDCHAR
STARTCHAR uni027B
ENCODING 635
SWIDTH 400 0
DWIDTH 9 0
BBX 10 13 0 -4
BITMAP
0F00
0600
0600
0600
0600
0600
0600
8E00
7600
0600
0600
0100
00C0
ENDCHAR
STARTCHAR uni027C
ENCODING 636
SWIDTH 400 0
DWIDTH 9 0
BBX 8 13 0 -4
BITMAP
DE
61
40
40
40
40
40
40
40
40
40
40
E0
ENDCHAR
STARTCHAR uni027D
ENCODING 637
SWIDTH 400 0
DWIDTH 9 0
BBX 8 13 0 -4
BITMAP
DE
61
40
40
40
40
40
40
40
40
40
20
1C
ENDCHAR
STARTCHAR uni027E
ENCODING 638
SWIDTH 400 0
DWIDTH 9 0
BBX 8 9 0 0
BITMAP
1E
21
40
40
40
40
40
40
E0
ENDCHAR
STARTCHAR uni027F
ENCODING 639
SWIDTH 400 0
DWIDTH 9 0
BBX 8 9 0 0
BITMAP
70
8C
06
06
06
06
06
06
0F
ENDCHAR
STARTCHAR uni0280
ENCODING 640
SWIDTH 400 0
DWIDTH 9 0
BBX 8 9 0 0
BITMAP
FE
41
41
41
41
7E
50
4C
E7
ENDCHAR
STARTCHAR uni0281
ENCODING 641
SWIDTH 400 0
DWIDTH 9 0
BBX 8 9 0 0
BITMAP
E7
4C
50
7E
7E
41
41
41
FE
ENDCHAR
STARTCHAR uni0282
ENCODING 642
SWIDTH 350 0
DWIDTH 8 0
BBX 7 13 0 -4
BITMAP
76
8E
86
E6
60
1C
86
C6
BC
80
80
40
3C
ENDCHAR
STARTCHAR uni0283
ENCODING 643
SWIDTH 200 0
DWIDTH 4 0
BBX 8 17 -2 -4
BITMAP
07
08
10
10
10
10
10
10
10
10
10
10
10
10
10
20
C0
ENDCHAR
STARTCHAR uni0284
ENCODING 644
SWIDTH 200 0
DWIDTH 4 0
BBX 8 17 -2 -4
BITMAP
07
08
10
10
10
10
10
10
10
10
10
10
38
10
10
20
C0
ENDCHAR
STARTCHAR uni0285
ENCODING 645
SWIDTH 300 0
DWIDTH 7 0
BBX 8 13 -2 0
BITMAP
C0
20
10
10
10
10
10
10
10
10
10
08
07
ENDCHAR
STARTCHAR uni0286
ENCODING 646
SWIDTH 200 0
DWIDTH 4 0
BBX 9 19 -3 -6
BITMAP
0380
0400
0800
0800
0800
0800
0800
0800
0800
0800
0800
0800
0800
0800
6800
9000
6800
0400
0400
ENDCHAR
STARTCHAR uni0287
ENCODING 647
SWIDTH 200 0
DWIDTH 4 0
BBX 4 13 -1 -4
BITMAP
C0
20
20
20
20
20
20
20
70
20
20
20
20
ENDCHAR
STARTCHAR uni0288
ENCODING 648
SWIDTH 200 0
DWIDTH 4 0
BBX 6 17 0 -4
BITMAP
40
40
40
40
E0
40
40
40
40
40
40
40
40
40
40
20
1C
ENDCHAR
STARTCHAR uni0289
ENCODING 649
SWIDTH 450 0
DWIDTH 10 0
BBX 9 9 0 0
BITMAP
C700
4100
4100
FF80
FF80
4100
4100
2700
1D80
ENDCHAR
STARTCHAR uni028A
ENCODING 650
SWIDTH 450 0
DWIDTH 10 0
BBX 9 9 0 0
BITMAP
E780
2600
2600
6700
4100
4100
4100
2600
1C00
ENDCHAR
STARTCHAR uni028B
ENCODING 651
SWIDTH 400 0
DWIDTH 9 0
BBX 8 9 0 0
BITMAP
CC
46
41
41
41
41
41
26
1C
ENDCHAR
STARTCHAR uni028C
ENCODING 652
SWIDTH 400 0
DWIDTH 9 0
BBX 8 9 0 0
BITMAP
10
10
2C
2C
2C
2C
46
46
EF
ENDCHAR
STARTCHAR uni028D
ENCODING 653
SWIDTH 500 0
DWIDTH 11 0
BBX 10 9 0 0
BITMAP
1600
1600
2D00
2D00
2D00
2D00
4080
4080
E1C0
ENDCHAR
STARTCHAR uni028E
ENCODING 654
SWIDTH 400 0
DWIDTH 9 0
BBX 8 13 0 0
BITMAP
01
06
0C
0C
10
10
2C
2C
2C
2C
46
46
EF
ENDCHAR
STARTCHAR uni028F
ENCODING 655
SWIDTH 400 0
DWIDTH 9 0
BBX 8 9 0 0
BITMAP
EF
46
2C
2C
2C
10
10
10
3C
ENDCHAR
STARTCHAR uni0290
ENCODING 656
SWIDTH 350 0
DWIDTH 8 0
BBX 10 13 0 -4
BITMAP
FE00
8600
0C00
1C00
1000
2000
4000
8600
FE00
0600
0600
0100
00C0
ENDCHAR
STARTCHAR uni0291
ENCODING 657
SWIDTH 350 0
DWIDTH 8 0
BBX 7 11 0 -2
BITMAP
FE
86
0C
1C
10
20
4C
96
FC
20
40
ENDCHAR
STARTCHAR uni0292
ENCODING 658
SWIDTH 350 0
DWIDTH 8 0
BBX 7 13 0 -4
BITMAP
FE
86
0C
1C
10
20
70
0C
06
06
06
8C
70
ENDCHAR
STARTCHAR uni0293
ENCODING 659
SWIDTH 350 0
DWIDTH 8 0
BBX 7 16 0 -7
BITMAP
FE
86
0C
1C
10
20
70
0C
06
06
46
AC
70
10
1C
0C
ENDCHAR
STARTCHAR uni0294
ENCODING 660
SWIDTH 400 0
DWIDTH 9 0
BBX 8 12 0 0
BITMAP
3C
46
81
01
06
0C
1C
10
10
10
10
3C
ENDCHAR
STARTCHAR uni0295
ENCODING 661
SWIDTH 400 0
DWIDTH 9 0
BBX 8 12 0 0
BITMAP
3C
46
81
80
40
20
30
10
10
10
10
3C
ENDCHAR
STARTCHAR uni0296
ENCODING 662
SWIDTH 400 0
DWIDTH 9 0
BBX 8 12 0 0
BITMAP
3C
10
10
10
10
0C
0E
06
01
81
46
3C
ENDCHAR
STARTCHAR uni0297
ENCODING 663
SWIDTH 400 0
DWIDTH 9 0
BBX 8 13 0 -4
BITMAP
3D
47
81
81
80
80
80
80
80
80
81
46
3C
ENDCHAR
STARTCHAR uni0298
ENCODING 664
SWIDTH 400 0
DWIDTH 9 0
BBX 8 9 0 0
BITMAP
3C
46
91
BD
BD
BD
91
46
3C
ENDCHAR
STARTCHAR uni0299
ENCODING 665
SWIDTH 400 0
DWIDTH 9 0
BBX 8 9 0 0
BITMAP
FE
41
41
7F
7E
41
41
41
FE
ENDCHAR
STARTCHAR uni029A
ENCODING 666
SWIDTH 450 0
DWIDTH 10 0
BBX 9 9 0 0
BITMAP
7C00
8600
8100
FD80
7C80
8080
8100
8600
7C00
ENDCHAR
STARTCHAR uni029B
ENCODING 667
SWIDTH 400 0
DWIDTH 9 0
BBX 11 13 0 0
BITMAP
0060
0080
0100
0100
3D00
4700
8000
8F00
8F00
8100
8100
4700
3D00
ENDCHAR
STARTCHAR uni029C
ENCODING 668
SWIDTH 450 0
DWIDTH 10 0
BBX 9 9 0 0
BITMAP
E780
4100
4100
7F00
7F00
4100
4100
4100
E780
ENDCHAR
STARTCHAR uni029D
ENCODING 669
SWIDTH 150 0
DWIDTH 3 0
BBX 6 19 -3 -6
BITMAP
08
08
00
00
18
08
08
08
08
08
08
08
08
08
68
90
68
04
04
ENDCHAR
STARTCHAR uni029E
ENCODING 670
SWIDTH 450 0
DWIDTH 10 0
BBX 9 13 0 -4
BITMAP
E780
4100
2100
3700
1700
0D00
1100
2100
7100
0100
0100
0100
0180
ENDCHAR
STARTCHAR uni029F
ENCODING 671
SWIDTH 400 0
DWIDTH 9 0
BBX 8 9 0 0
BITMAP
E0
40
40
40
40
40
40
41
FF
ENDCHAR
STARTCHAR uni02A0
ENCODING 672
SWIDTH 450 0
DWIDTH 10 0
BBX 11 17 0 -4
BITMAP
0060
0080
0100
0100
3D00
4700
8100
8100
8100
8100
8100
4700
3D00
0100
0100
0100
0780
ENDCHAR
STARTCHAR uni02A1
ENCODING 673
SWIDTH 400 0
DWIDTH 9 0
BBX 8 12 0 0
BITMAP
3C
46
81
01
06
0C
1C
10
3C
10
10
3C
ENDCHAR
STARTCHAR uni02A2
ENCODING 674
SWIDTH 400 0
DWIDTH 9 0
BBX 8 12 0 0
BITMAP
3C
46
81
80
40
20
30
10
3C
10
10
3C
ENDCHAR
STARTCHAR uni02A3
ENCODING 675
SWIDTH 750 0
DWIDTH 17 0
BBX 15 13 0 0
BITMAP
0700
0100
0100
0100
3D7E
4742
8104
810C
8108
8110
8120
4742
3DFE
ENDCHAR
STARTCHAR uni02A4
ENCODING 676
SWIDTH 750 0
DWIDTH 17 0
BBX 15 17 0 -4
BITMAP
0700
0100
0100
0100
3D7E
4742
8104
810C
8108
8110
8138
4704
3D82
0002
0002
0044
0038
ENDCHAR
STARTCHAR uni02A5
ENCODING 677
SWIDTH 750 0
DWIDTH 17 0
BBX 15 15 0 -2
BITMAP
0700
0100
0100
0100
3D7E
4742
8104
810C
8108
8110
8124
474A
3DFC
0010
0020
ENDCHAR
STARTCHAR uni02A6
ENCODING 678
SWIDTH 550 0
DWIDTH 12 0
BBX 11 13 0 0
BITMAP
4000
4000
4000
4000
E7A0
4C60
4C20
4F20
4700
40C0
4C20
4E20
3DC0
ENDCHAR
STARTCHAR uni02A7
ENCODING 679
SWIDTH 350 0
DWIDTH 8 0
BBX 9 17 0 -4
BITMAP
4180
4600
4C00
4C00
EC00
4C00
4C00
4C00
4C00
4C00
4C00
4C00
3C00
0C00
0C00
1000
6000
ENDCHAR
STARTCHAR uni02A8
ENCODING 680
SWIDTH 600 0
DWIDTH 13 0
BBX 12 15 0 -2
BITMAP
4000
4000
4000
4000
E1D0
4630
4C10
4C10
4C00
4C00
4C20
4E50
31E0
0080
0100
ENDCHAR
STARTCHAR uni02A9
ENCODING 681
SWIDTH 600 0
DWIDTH 13 0
BBX 12 17 0 -4
BITMAP
1C00
2000
4000
4000
FEC0
4720
4610
4610
4610
4610
4610
4610
EF10
0010
0010
0020
01C0
ENDCHAR
STARTCHAR uni02AA
ENCODING 682
SWIDTH 500 0
DWIDTH 11 0
BBX 10 13 0 0
BITMAP
C000
4000
4000
4000
4F40
50C0
5040
5E40
4E00
4180
5040
5C40
F780
ENDCHAR
STARTCHAR uni02AB
ENCODING 683
SWIDTH 500 0
DWIDTH 11 0
BBX 10 13 0 0
BITMAP
C000
4000
4000
4000
5FC0
5040
4080
4180
4100
4600
4C00
5040
FFC0
ENDCHAR
STARTCHAR uni02AC
ENCODING 684
SWIDTH 500 0
DWIDTH 11 0
BBX 10 12 0 0
BITMAP
E1C0
4C80
2D00
1600
1600
0000
E1C0
E1C0
4C80
2D00
1600
1600
ENDCHAR
STARTCHAR uni02AD
ENCODING 685
SWIDTH 500 0
DWIDTH 11 0
BBX 10 12 0 0
BITMAP
FFC0
8040
8040
8040
8040
0000
FFC0
FFC0
8040
8040
8040
8040
ENDCHAR
STARTCHAR uni02AE
ENCODING 686
SWIDTH 450 0
DWIDTH 10 0
BBX 10 13 -1 -4
BITMAP
C3C0
2080
2080
2080
2080
2080
2080
1380
0E80
0080
0080
0080
00C0
ENDCHAR
STARTCHAR uni02AF
ENCODING 687
SWIDTH 450 0
DWIDTH 10 0
BBX 12 13 -1 -4
BITMAP
C3C0
2080
2080
2080
2080
2080
2080
1380
0E80
0080
0080
0040
0030
ENDCHAR
STARTCHAR circumflex
ENCODING 710
SWIDTH 300 0
DWIDTH 7 0
BBX 6 3 0 10
BITMAP
20
50
8C
ENDCHAR
STARTCHAR caron
ENCODING 711
SWIDTH 300 0
DWIDTH 7 0
BBX 6 3 0 10
BITMAP
8C
50
20
ENDCHAR
STARTCHAR uni02C8
ENCODING 712
SWIDTH 200 0
DWIDTH 4 0
BBX 1 3 1 10
BITMAP
80
80
80
ENDCHAR
STARTCHAR macron
ENCODING 713
SWIDTH 300 0
DWIDTH 7 0
BBX 6 1 0 12
BITMAP
FC
ENDCHAR
STARTCHAR uni02CA
ENCODING 714
SWIDTH 150 0
DWIDTH 3 0
BBX 2 2 0 11
BITMAP
40
80
ENDCHAR
STARTCHAR uni02CB
ENCODING 715
SWIDTH 150 0
DWIDTH 3 0
BBX 2 2 0 11
BITMAP
80
40
ENDCHAR
STARTCHAR uni02D2
ENCODING 722
SWIDTH 150 0
DWIDTH 3 0
BBX 2 4 0 9
BITMAP
80
40
40
80
ENDCHAR
STARTCHAR uni02D3
ENCODING 723
SWIDTH 150 0
DWIDTH 3 0
BBX 2 4 0 9
BITMAP
40
80
80
40
ENDCHAR
STARTCHAR uni02D4
ENCODING 724
SWIDTH 200 0
DWIDTH 4 0
BBX 3 3 0 10
BITMAP
40
40
E0
ENDCHAR
STARTCHAR uni02D5
ENCODING 725
SWIDTH 200 0
DWIDTH 4 0
BBX 3 3 0 10
BITMAP
E0
40
40
ENDCHAR
STARTCHAR uni02D6
ENCODING 726
SWIDTH 200 0
DWIDTH 4 0
BBX 3 3 0 10
BITMAP
40
E0
40
ENDCHAR
STARTCHAR uni02D7
ENCODING 727
SWIDTH 200 0
DWIDTH 4 0
BBX 3 1 0 11
BITMAP
E0
ENDCHAR
STARTCHAR breve
ENCODING 728
SWIDTH 300 0
DWIDTH 7 0
BBX 6 2 0 11
BITMAP
8C
70
ENDCHAR
STARTCHAR dotaccent
ENCODING 729
SWIDTH 250 0
DWIDTH 6 0
BBX 2 1 1 12
BITMAP
C0
ENDCHAR
STARTCHAR ring
ENCODING 730
SWIDTH 300 0
DWIDTH 7 0
BBX 6 3 0 10
BITMAP
70
8C
70
ENDCHAR
STARTCHAR ogonek
ENCODING 731
SWIDTH 300 0
DWIDTH 7 0
BBX 3 4 1 -4
BITMAP
40
80
A0
40
ENDCHAR
STARTCHAR tilde
ENCODING 732
SWIDTH 350 0
DWIDTH 8 0
BBX 7 2 0 11
BITMAP
66
9C
ENDCHAR
STARTCHAR hungarumlaut
ENCODING 733
SWIDTH 350 0
DWIDTH 8 0
BBX 7 3 0 10
BITMAP
26
4C
90
ENDCHAR
STARTCHAR uni0300
ENCODING 768
SWIDTH 0 0
DWIDTH 0 0
BBX 3 2 -7 11
BITMAP
C0
60
ENDCHAR
STARTCHAR uni0301
ENCODING 769
SWIDTH 0 0
DWIDTH 0 0
BBX 3 2 -6 11
BITMAP
20
C0
ENDCHAR
STARTCHAR uni0302
ENCODING 770
SWIDTH 0 0
DWIDTH 0 0
BBX 4 2 -7 11
BITMAP
60
D0
ENDCHAR
STARTCHAR uni0303
ENCODING 771
SWIDTH 0 0
DWIDTH 0 0
BBX 6 2 -8 11
BITMAP
74
B8
ENDCHAR
STARTCHAR uni0304
ENCODING 772
SWIDTH 0 0
DWIDTH 0 0
BBX 6 1 -8 12
BITMAP
FC
ENDCHAR
STARTCHAR uni0305
ENCODING 773
SWIDTH 0 0
DWIDTH 0 0
BBX 10 1 -10 12
BITMAP
FFC0
ENDCHAR
STARTCHAR uni0306
ENCODING 774
SWIDTH 0 0
DWIDTH 0 0
BBX 6 2 -8 11
BITMAP
84
78
ENDCHAR
STARTCHAR uni0307
ENCODING 775
SWIDTH 0 0
DWIDTH 0 0
BBX 3 1 -7 12
BITMAP
E0
ENDCHAR
STARTCHAR uni0308
ENCODING 776
SWIDTH 0 0
DWIDTH 0 0
BBX 6 1 -8 12
BITMAP
EC
ENDCHAR
STARTCHAR uni030A
ENCODING 778
SWIDTH 0 0
DWIDTH 0 0
BBX 6 3 -8 11
BITMAP
78
84
78
ENDCHAR
STARTCHAR uni030B
ENCODING 779
SWIDTH 0 0
DWIDTH 0 0
BBX 5 2 -7 11
BITMAP
68
D0
ENDCHAR
STARTCHAR uni030C
ENCODING 780
SWIDTH 0 0
DWIDTH 0 0
BBX 4 2 -7 11
BITMAP
D0
60
ENDCHAR
STARTCHAR uni0370
ENCODING 880
SWIDTH 400 0
DWIDTH 9 0
BBX 8 12 0 0
BITMAP
E0
40
40
40
40
7F
7F
40
40
40
40
E0
ENDCHAR
STARTCHAR uni0371
ENCODING 881
SWIDTH 350 0
DWIDTH 8 0
BBX 7 9 0 0
BITMAP
80
40
40
7E
7E
40
40
40
E0
ENDCHAR
STARTCHAR uni0372
ENCODING 882
SWIDTH 400 0
DWIDTH 9 0
BBX 8 16 0 -4
BITMAP
FF
91
10
10
10
10
10
10
10
10
10
10
10
10
10
10
ENDCHAR
STARTCHAR uni0373
ENCODING 883
SWIDTH 400 0
DWIDTH 9 0
BBX 8 16 0 -4
BITMAP
7F
91
10
10
10
10
10
10
10
10
10
10
10
10
10
10
ENDCHAR
STARTCHAR uni0374
ENCODING 884
SWIDTH 150 0
DWIDTH 3 0
BBX 2 4 0 9
BITMAP
40
40
80
80
ENDCHAR
STARTCHAR uni0375
ENCODING 885
SWIDTH 150 0
DWIDTH 3 0
BBX 2 4 0 -1
BITMAP
40
40
80
80
ENDCHAR
STARTCHAR uni0376
ENCODING 886
SWIDTH 500 0
DWIDTH 11 0
BBX 10 12 0 0
BITMAP
E0C0
4180
4180
4680
4680
4C80
4C80
4C80
5080
5080
6080
41C0
ENDCHAR
STARTCHAR uni0377
ENCODING 887
SWIDTH 450 0
DWIDTH 10 0
BBX 9 9 0 0
BITMAP
E180
4700
4D00
4D00
4D00
5100
5100
6100
4780
ENDCHAR
STARTCHAR uni037A
ENCODING 890
SWIDTH 200 0
DWIDTH 4 0
BBX 3 4 0 -2
BITMAP
C0
40
40
20
ENDCHAR
STARTCHAR uni037B
ENCODING 891
SWIDTH 400 0
DWIDTH 9 0
BBX 8 9 0 0
BITMAP
BC
C6
81
81
01
01
81
46
3C
ENDCHAR
STARTCHAR uni037C
ENCODING 892
SWIDTH 400 0
DWIDTH 9 0
BBX 8 9 0 0
BITMAP
3D
47
81
91
90
90
81
46
3C
ENDCHAR
STARTCHAR uni037D
ENCODING 893
SWIDTH 400 0
DWIDTH 9 0
BBX 8 9 0 0
BITMAP
BC
C6
81
91
11
11
81
46
3C
ENDCHAR
STARTCHAR uni037E
ENCODING 894
SWIDTH 150 0
DWIDTH 3 0
BBX 2 9 0 -1
BITMAP
40
40
40
00
00
00
40
40
80
ENDCHAR
STARTCHAR tonos
ENCODING 900
SWIDTH 200 0
DWIDTH 4 0
BBX 3 3 0 10
BITMAP
20
40
80
ENDCHAR
STARTCHAR dieresistonos
ENCODING 901
SWIDTH 300 0
DWIDTH 7 0
BBX 6 4 0 10
BITMAP
10
20
00
DC
ENDCHAR
STARTCHAR Alphatonos
ENCODING 902
SWIDTH 500 0
DWIDTH 11 0
BBX 10 12 0 0
BITMAP
5C00
8C00
1600
1600
1600
2100
3F00
3F00
2100
4080
4080
E1C0
ENDCHAR
STARTCHAR anoteleia
ENCODING 903
SWIDTH 100 0
DWIDTH 2 0
BBX 1 3 0 5
BITMAP
80
80
80
ENDCHAR
STARTCHAR Epsilontonos
ENCODING 904
SWIDTH 600 0
DWIDTH 13 0
BBX 12 12 0 0
BITMAP
5FF0
8C10
0C00
0C00
0C40
0FC0
0FC0
0C40
0C00
0C00
0C10
1FF0
ENDCHAR
STARTCHAR Etatonos
ENCODING 905
SWIDTH 650 0
DWIDTH 14 0
BBX 13 12 0 0
BITMAP
5E38
8C10
0C10
0C10
0C10
0FF0
0FF0
0C10
0C10
0C10
0C10
1E38
ENDCHAR
STARTCHAR Iotatonos
ENCODING 906
SWIDTH 350 0
DWIDTH 8 0
BBX 7 12 0 0
BITMAP
5E
8C
0C
0C
0C
0C
0C
0C
0C
0C
0C
1E
ENDCHAR
STARTCHAR Omicrontonos
ENCODING 908
SWIDTH 600 0
DWIDTH 13 0
BBX 12 12 0 0
BITMAP
4780
9C60
1020
2010
2010
2010
2010
2010
2010
1020
1C60
0780
ENDCHAR
STARTCHAR Upsilontonos
ENCODING 910
SWIDTH 650 0
DWIDTH 14 0
BBX 13 12 0 0
BITMAP
5E38
8C10
0620
0620
0140
0080
0080
0080
0080
0080
0080
01C0
ENDCHAR
STARTCHAR Omegatonos
ENCODING 911
SWIDTH 650 0
DWIDTH 14 0
BBX 13 12 0 0
BITMAP
47C0
9C30
1010
2008
2008
2008
3018
1010
1C30
0640
2648
3E78
ENDCHAR
STARTCHAR iotadieresistonos
ENCODING 912
SWIDTH 200 0
DWIDTH 4 0
BBX 5 14 -1 0
BITMAP
10
20
00
D8
00
60
20
20
20
20
20
20
20
10
ENDCHAR
STARTCHAR Alpha
ENCODING 913
SWIDTH 500 0
DWIDTH 11 0
BBX 10 12 0 0
BITMAP
1C00
0C00
1600
1600
1600
2100
3F00
3F00
2100
4080
4080
E1C0
ENDCHAR
STARTCHAR Beta
ENCODING 914
SWIDTH 450 0
DWIDTH 10 0
BBX 9 12 0 0
BITMAP
FE00
4100
4080
4080
4100
7E00
7F00
4100
4080
4080
4100
FE00
ENDCHAR
STARTCHAR Gamma
ENCODING 915
SWIDTH 450 0
DWIDTH 10 0
BBX 9 12 0 0
BITMAP
FF80
4080
4000
4000
4000
4000
4000
4000
4000
4000
4000
E000
ENDCHAR
STARTCHAR Delta
ENCODING 916
SWIDTH 500 0
DWIDTH 11 0
BBX 10 12 0 0
BITMAP
0C00
0C00
1600
1600
2100
2100
2100
2100
4080
4080
8040
FFC0
ENDCHAR
STARTCHAR Epsilon
ENCODING 917
SWIDTH 450 0
DWIDTH 10 0
BBX 9 12 0 0
BITMAP
FF80
4080
4000
4000
4600
7E00
7E00
4600
4000
4000
4080
FF80
ENDCHAR
STARTCHAR Zeta
ENCODING 918
SWIDTH 400 0
DWIDTH 9 0
BBX 8 12 0 0
BITMAP
FF
81
06
0C
0C
10
30
20
20
40
81
FF
ENDCHAR
STARTCHAR Eta
ENCODING 919
SWIDTH 500 0
DWIDTH 11 0
BBX 10 12 0 0
BITMAP
E1C0
4080
4080
4080
4080
7F80
7F80
4080
4080
4080
4080
E1C0
ENDCHAR
STARTCHAR Theta
ENCODING 920
SWIDTH 500 0
DWIDTH 11 0
BBX 10 12 0 0
BITMAP
1E00
6180
4080
8040
A140
BF40
BF40
A140
8040
4080
6180
1E00
ENDCHAR
STARTCHAR Iota
ENCODING 921
SWIDTH 200 0
DWIDTH 4 0
BBX 3 12 0 0
BITMAP
E0
40
40
40
40
40
40
40
40
40
40
E0
ENDCHAR
STARTCHAR Kappa
ENCODING 922
SWIDTH 450 0
DWIDTH 10 0
BBX 9 12 0 0
BITMAP
E780
4100
4600
4C00
5000
6C00
6E00
4600
4600
4100
4100
E780
ENDCHAR
STARTCHAR Lambda
ENCODING 923
SWIDTH 500 0
DWIDTH 11 0
BBX 10 12 0 0
BITMAP
1C00
0C00
1600
1600
1600
2100
2100
2100
2100
4080
4080
E1C0
ENDCHAR
STARTCHAR Mu
ENCODING 924
SWIDTH 600 0
DWIDTH 13 0
BBX 12 12 0 0
BITMAP
C030
6060
50A0
4D20
4620
4620
4620
4020
4020
4020
4020
E070
ENDCHAR
STARTCHAR Nu
ENCODING 925
SWIDTH 500 0
DWIDTH 11 0
BBX 10 12 0 0
BITMAP
C1C0
6080
6080
5080
5080
4C80
4C80
4C80
4680
4680
4180
E080
ENDCHAR
STARTCHAR Xi
ENCODING 926
SWIDTH 400 0
DWIDTH 9 0
BBX 8 12 0 0
BITMAP
FF
81
00
00
46
7E
7E
46
00
00
81
FF
ENDCHAR
STARTCHAR Omicron
ENCODING 927
SWIDTH 500 0
DWIDTH 11 0
BBX 10 12 0 0
BITMAP
1E00
6180
4080
8040
8040
8040
8040
8040
8040
4080
6180
1E00
ENDCHAR
STARTCHAR Pi
ENCODING 928
SWIDTH 500 0
DWIDTH 11 0
BBX 10 12 0 0
BITMAP
FFC0
4080
4080
4080
4080
4080
4080
4080
4080
4080
4080
E1C0
ENDCHAR
STARTCHAR Rho
ENCODING 929
SWIDTH 450 0
DWIDTH 10 0
BBX 9 12 0 0
BITMAP
FE00
4100
4080
4080
4100
7E00
7E00
4000
4000
4000
4000
E000
ENDCHAR
STARTCHAR Sigma
ENCODING 931
SWIDTH 450 0
DWIDTH 10 0
BBX 9 12 0 0
BITMAP
FF80
4080
2000
1000
0C00
0600
0E00
0C00
1000
2000
4080
FF80
ENDCHAR
STARTCHAR Tau
ENCODING 932
SWIDTH 400 0
DWIDTH 9 0
BBX 8 12 0 0
BITMAP
FF
91
10
10
10
10
10
10
10
10
10
3C
ENDCHAR
STARTCHAR Upsilon
ENCODING 933
SWIDTH 500 0
DWIDTH 11 0
BBX 10 12 0 0
BITMAP
E1C0
4080
2100
2100
1600
0C00
0C00
0C00
0C00
0C00
0C00
1E00
ENDCHAR
STARTCHAR Phi
ENCODING 934
SWIDTH 400 0
DWIDTH 9 0
BBX 8 12 0 0
BITMAP
3C
10
3C
56
91
91
91
91
56
3C
10
3C
ENDCHAR
STARTCHAR Chi
ENCODING 935
SWIDTH 500 0
DWIDTH 11 0
BBX 10 12 0 0
BITMAP
E1C0
4080
2100
2100
1600
0C00
1E00
1600
2100
2100
4080
E1C0
ENDCHAR
STARTCHAR Psi
ENCODING 936
SWIDTH 500 0
DWIDTH 11 0
BBX 10 12 0 0
BITMAP
9E40
4C80
4C80
4C80
2D00
1E00
1E00
0C00
0C00
0C00
0C00
1E00
ENDCHAR
STARTCHAR Omega
ENCODING 937
SWIDTH 550 0
DWIDTH 12 0
BBX 11 12 0 0
BITMAP
1F00
60C0
4040
8020
8020
8020
C060
4040
60C0
1100
9120
F1E0
ENDCHAR
STARTCHAR Iotadieresis
ENCODING 938
SWIDTH 200 0
DWIDTH 4 0
BBX 5 14 -1 0
BITMAP
D8
00
70
20
20
20
20
20
20
20
20
20
20
70
ENDCHAR
STARTCHAR Upsilondieresis
ENCODING 939
SWIDTH 500 0
DWIDTH 11 0
BBX 10 14 0 0
BITMAP
3700
0000
E1C0
4080
2100
2100
1600
0C00
0C00
0C00
0C00
0C00
0C00
1E00
ENDCHAR
STARTCHAR alphatonos
ENCODING 940
SWIDTH 450 0
DWIDTH 10 0
BBX 9 12 0 0
BITMAP
0C00
1000
0000
3080
4D00
8600
8600
8600
8600
8600
4D00
3080
ENDCHAR
STARTCHAR epsilontonos
ENCODING 941
SWIDTH 350 0
DWIDTH 8 0
BBX 7 12 0 0
BITMAP
10
20
00
7C
86
80
FC
7C
80
80
86
7C
ENDCHAR
STARTCHAR etatonos
ENCODING 942
SWIDTH 400 0
DWIDTH 9 0
BBX 8 16 0 -4
BITMAP
0C
10
00
DC
66
41
41
41
41
41
41
E1
01
01
01
01
ENDCHAR
STARTCHAR iotatonos
ENCODING 943
SWIDTH 200 0
DWIDTH 4 0
BBX 3 12 0 0
BITMAP
20
40
00
C0
40
40
40
40
40
40
40
20
ENDCHAR
STARTCHAR upsilondieresistonos
ENCODING 944
SWIDTH 400 0
DWIDTH 9 0
BBX 8 14 0 0
BITMAP
0C
10
00
6E
00
CC
46
41
41
41
41
41
26
1C
ENDCHAR
STARTCHAR alpha
ENCODING 945
SWIDTH 450 0
DWIDTH 10 0
BBX 9 9 0 0
BITMAP
3080
4D00
8600
8600
8600
8600
8600
4D00
3080
ENDCHAR
STARTCHAR beta
ENCODING 946
SWIDTH 400 0
DWIDTH 9 0
BBX 8 16 0 -4
BITMAP
3C
46
81
81
86
9C
9E
86
81
81
86
9C
80
80
80
80
ENDCHAR
STARTCHAR gamma
ENCODING 947
SWIDTH 350 0
DWIDTH 8 0
BBX 7 13 0 -3
BITMAP
06
CC
2C
10
10
10
10
20
20
20
40
40
40
ENDCHAR
STARTCHAR delta
ENCODING 948
SWIDTH 400 0
DWIDTH 9 0
BBX 8 13 0 0
BITMAP
1C
26
20
10
3C
46
81
81
81
81
81
46
3C
ENDCHAR
STARTCHAR epsilon
ENCODING 949
SWIDTH 350 0
DWIDTH 8 0
BBX 7 9 0 0
BITMAP
7C
86
80
FC
7C
80
80
86
7C
ENDCHAR
STARTCHAR zeta
ENCODING 950
SWIDTH 350 0
DWIDTH 8 0
BBX 7 18 0 -4
BITMAP
80
40
3E
40
40
80
80
80
80
80
80
80
40
3C
06
06
0C
30
ENDCHAR
STARTCHAR eta
ENCODING 951
SWIDTH 400 0
DWIDTH 9 0
BBX 8 13 0 -4
BITMAP
DC
66
41
41
41
41
41
41
E1
01
01
01
01
ENDCHAR
STARTCHAR theta
ENCODING 952
SWIDTH 400 0
DWIDTH 9 0
BBX 8 12 0 0
BITMAP
1C
66
41
81
81
FF
FF
81
81
86
4E
30
ENDCHAR
STARTCHAR iota
ENCODING 953
SWIDTH 200 0
DWIDTH 4 0
BBX 3 9 0 0
BITMAP
C0
40
40
40
40
40
40
40
20
ENDCHAR
STARTCHAR kappa
ENCODING 954
SWIDTH 450 0
DWIDTH 10 0
BBX 9 9 0 0
BITMAP
EF00
4600
4C00
5C00
5000
6C00
4600
4100
E780
ENDCHAR
STARTCHAR lambda
ENCODING 955
SWIDTH 400 0
DWIDTH 9 0
BBX 8 13 0 0
BITMAP
80
40
20
20
10
10
2C
2C
2C
2C
46
46
EF
ENDCHAR
STARTCHAR mu
ENCODING 956
SWIDTH 450 0
DWIDTH 10 0
BBX 9 13 0 -4
BITMAP
C700
4100
4100
4100
4100
4100
4100
6700
5D80
4000
4000
4000
4000
ENDCHAR
STARTCHAR nu
ENCODING 957
SWIDTH 400 0
DWIDTH 9 0
BBX 8 9 0 0
BITMAP
C7
41
41
41
41
46
46
4C
70
ENDCHAR
STARTCHAR xi
ENCODING 958
SWIDTH 350 0
DWIDTH 8 0
BBX 7 18 0 -4
BITMAP
80
40
3E
40
40
3C
40
80
80
80
80
80
40
3C
06
06
0C
30
ENDCHAR
STARTCHAR omicron
ENCODING 959
SWIDTH 400 0
DWIDTH 9 0
BBX 8 9 0 0
BITMAP
3C
46
81
81
81
81
81
46
3C
ENDCHAR
STARTCHAR pi
ENCODING 960
SWIDTH 450 0
DWIDTH 10 0
BBX 9 10 0 0
BITMAP
0080
7F00
A600
2600
2600
2600
2600
2600
4600
4100
ENDCHAR
STARTCHAR rho
ENCODING 961
SWIDTH 400 0
DWIDTH 9 0
BBX 8 13 0 -4
BITMAP
3C
46
81
81
81
81
81
C6
BC
80
80
80
80
ENDCHAR
STARTCHAR sigma1
ENCODING 962
SWIDTH 400 0
DWIDTH 9 0
BBX 8 13 0 -4
BITMAP
3F
40
80
80
80
80
80
40
3E
01
01
06
3C
ENDCHAR
STARTCHAR sigma
ENCODING 963
SWIDTH 400 0
DWIDTH 9 0
BBX 9 9 0 0
BITMAP
3F80
4600
8100
8100
8100
8100
8100
4600
3C00
ENDCHAR
STARTCHAR tau
ENCODING 964
SWIDTH 400 0
DWIDTH 9 0
BBX 8 9 0 0
BITMAP
7F
90
10
10
10
10
10
10
0C
ENDCHAR
STARTCHAR upsilon
ENCODING 965
SWIDTH 400 0
DWIDTH 9 0
BBX 8 9 0 0
BITMAP
CC
46
41
41
41
41
41
26
1C
ENDCHAR
STARTCHAR phi
ENCODING 966
SWIDTH 400 0
DWIDTH 9 0
BBX 8 13 0 -4
BITMAP
4C
96
91
91
91
91
91
56
3C
10
10
10
10
ENDCHAR
STARTCHAR chi
ENCODING 967
SWIDTH 450 0
DWIDTH 10 0
BBX 9 13 0 -4
BITMAP
C080
A100
2100
3700
1600
1C00
1C00
1C00
1C00
2C00
4600
4680
8180
ENDCHAR
STARTCHAR psi
ENCODING 968
SWIDTH 500 0
DWIDTH 11 0
BBX 10 13 0 -4
BITMAP
8C40
4C80
4C80
4C80
4C80
4C80
4C80
2D00
1E00
0C00
0C00
0C00
0C00
ENDCHAR
STARTCHAR omega
ENCODING 969
SWIDTH 600 0
DWIDTH 13 0
BBX 12 9 0 0
BITMAP
2040
4020
8010
8610
8610
8610
8610
4D20
30C0
ENDCHAR
STARTCHAR iotadieresis
ENCODING 970
SWIDTH 200 0
DWIDTH 4 0
BBX 5 11 -1 0
BITMAP
D8
00
60
20
20
20
20
20
20
20
10
ENDCHAR
STARTCHAR upsilondieresis
ENCODING 971
SWIDTH 400 0
DWIDTH 9 0
BBX 8 11 0 0
BITMAP
6E
00
CC
46
41
41
41
41
41
26
1C
ENDCHAR
STARTCHAR omicrontonos
ENCODING 972
SWIDTH 400 0
DWIDTH 9 0
BBX 8 12 0 0
BITMAP
0C
10
00
3C
46
81
81
81
81
81
46
3C
ENDCHAR
STARTCHAR upsilontonos
ENCODING 973
SWIDTH 400 0
DWIDTH 9 0
BBX 8 12 0 0
BITMAP
0C
10
00
CC
46
41
41
41
41
41
26
1C
ENDCHAR
STARTCHAR omegatonos
ENCODING 974
SWIDTH 600 0
DWIDTH 13 0
BBX 12 12 0 0
BITMAP
0100
0600
0000
2040
4020
8010
8610
8610
8610
8610
4D20
30C0
ENDCHAR
STARTCHAR uni0400
ENCODING 1024
SWIDTH 450 0
DWIDTH 10 0
BBX 9 15 0 0
BITMAP
1000
0C00
0000
FF80
4080
4000
4000
4600
7E00
7E00
4600
4000
4000
4080
FF80
ENDCHAR
STARTCHAR afii10023
ENCODING 1025
SWIDTH 450 0
DWIDTH 10 0
BBX 9 14 0 0
BITMAP
6700
0000
FF80
4080
4000
4000
4600
7E00
7E00
4600
4000
4000
4080
FF80
ENDCHAR
STARTCHAR afii10051
ENCODING 1026
SWIDTH 500 0
DWIDTH 11 0
BBX 10 16 0 -4
BITMAP
FF00
9100
1000
1700
1C80
1040
1040
1040
1040
1040
1040
3C40
0040
0040
0C80
0700
ENDCHAR
STARTCHAR afii10052
ENCODING 1027
SWIDTH 450 0
DWIDTH 10 0
BBX 9 15 0 0
BITMAP
0C00
1000
0000
FF80
4080
4000
4000
4000
4000
4000
4000
4000
4000
4000
E000
ENDCHAR
STARTCHAR afii10053
ENCODING 1028
SWIDTH 450 0
DWIDTH 10 0
BBX 9 12 0 0
BITMAP
1E80
6180
4080
8000
8600
FE00
FE00
8600
8000
4080
6180
1E00
ENDCHAR
STARTCHAR afii10054
ENCODING 1029
SWIDTH 400 0
DWIDTH 9 0
BBX 8 12 0 0
BITMAP
3D
47
81
80
40
3C
3E
06
01
81
C6
BC
ENDCHAR
STARTCHAR afii10055
ENCODING 1030
SWIDTH 200 0
DWIDTH 4 0
BBX 3 12 0 0
BITMAP
E0
40
40
40
40
40
40
40
40
40
40
E0
ENDCHAR
STARTCHAR afii10056
ENCODING 1031
SWIDTH 200 0
DWIDTH 4 0
BBX 5 14 -1 0
BITMAP
D8
00
70
20
20
20
20
20
20
20
20
20
20
70
ENDCHAR
STARTCHAR afii10057
ENCODING 1032
SWIDTH 450 0
DWIDTH 10 0
BBX 9 12 0 0
BITMAP
0780
0100
0100
0100
0100
0100
0100
0100
0100
8600
CE00
3000
ENDCHAR
STARTCHAR afii10058
ENCODING 1033
SWIDTH 750 0
DWIDTH 17 0
BBX 15 12 0 0
BITMAP
3FC0
1080
1080
1080
1080
10F8
10FC
1084
1082
9082
9084
61F8
ENDCHAR
STARTCHAR afii10059
ENCODING 1034
SWIDTH 700 0
DWIDTH 15 0
BBX 14 12 0 0
BITMAP
E780
4100
4100
4100
4100
7FF0
7FF8
4108
4104
4104
4108
E7F0
ENDCHAR
STARTCHAR afii10060
ENCODING 1035
SWIDTH 550 0
DWIDTH 12 0
BBX 11 12 0 0
BITMAP
FF00
9100
1000
1700
1C80
1040
1040
1040
1040
1040
1040
3CE0
ENDCHAR
STARTCHAR afii10061
ENCODING 1036
SWIDTH 450 0
DWIDTH 10 0
BBX 9 15 0 0
BITMAP
0C00
1000
0000
E780
4100
4600
4C00
5000
6C00
6E00
4600
4600
4100
4100
E780
ENDCHAR
STARTCHAR uni040D
ENCODING 1037
SWIDTH 500 0
DWIDTH 11 0
BBX 10 15 0 0
BITMAP
1000
0C00
0000
E0C0
4180
4180
4680
4680
4C80
4C80
4C80
5080
5080
6080
41C0
ENDCHAR
STARTCHAR afii10062
ENCODING 1038
SWIDTH 500 0
DWIDTH 11 0
BBX 10 15 0 0
BITMAP
2100
1E00
0000
E1C0
4080
2100
2100
1600
0C00
0C00
0C00
1000
1000
A000
4000
ENDCHAR
STARTCHAR afii10145
ENCODING 1039
SWIDTH 500 0
DWIDTH 11 0
BBX 10 14 0 -2
BITMAP
E1C0
4080
4080
4080
4080
4080
4080
4080
4080
4080
4080
FFC0
0C00
0C00
ENDCHAR
STARTCHAR afii10017
ENCODING 1040
SWIDTH 500 0
DWIDTH 11 0
BBX 10 12 0 0
BITMAP
1C00
0C00
1600
1600
1600
2100
3F00
3F00
2100
4080
4080
E1C0
ENDCHAR
STARTCHAR afii10018
ENCODING 1041
SWIDTH 450 0
DWIDTH 10 0
BBX 9 12 0 0
BITMAP
FF00
4100
4000
4000
4000
7E00
7F00
4100
4080
4080
4100
FE00
ENDCHAR
STARTCHAR afii10019
ENCODING 1042
SWIDTH 450 0
DWIDTH 10 0
BBX 9 12 0 0
BITMAP
FE00
4100
4080
4080
4100
7E00
7F00
4100
4080
4080
4100
FE00
ENDCHAR
STARTCHAR afii10020
ENCODING 1043
SWIDTH 450 0
DWIDTH 10 0
BBX 9 12 0 0
BITMAP
FF80
4080
4000
4000
4000
4000
4000
4000
4000
4000
4000
E000
ENDCHAR
STARTCHAR afii10021
ENCODING 1044
SWIDTH 500 0
DWIDTH 11 0
BBX 10 14 0 -2
BITMAP
3FC0
1080
1080
1080
1080
1080
1080
1080
2080
2080
4080
FFC0
8040
8040
ENDCHAR
STARTCHAR afii10022
ENCODING 1045
SWIDTH 450 0
DWIDTH 10 0
BBX 9 12 0 0
BITMAP
FF80
4080
4000
4000
4600
7E00
7E00
4600
4000
4000
4080
FF80
ENDCHAR
STARTCHAR afii10024
ENCODING 1046
SWIDTH 700 0
DWIDTH 15 0
BBX 14 12 0 0
BITMAP
E79C
4108
2110
1120
0D40
17A0
37B0
2110
2110
4108
4108
E79C
ENDCHAR
STARTCHAR afii10025
ENCODING 1047
SWIDTH 400 0
DWIDTH 9 0
BBX 8 12 0 0
BITMAP
BC
C6
81
01
06
3C
3E
06
01
81
46
3C
ENDCHAR
STARTCHAR afii10026
ENCODING 1048
SWIDTH 500 0
DWIDTH 11 0
BBX 10 12 0 0
BITMAP
E0C0
4180
4180
4680
4680
4C80
4C80
4C80
5080
5080
6080
41C0
ENDCHAR
STARTCHAR afii10027
ENCODING 1049
SWIDTH 500 0
DWIDTH 11 0
BBX 10 15 0 0
BITMAP
2100
1E00
0000
E0C0
4180
4180
4680
4680
4C80
4C80
4C80
5080
5080
6080
41C0
ENDCHAR
STARTCHAR afii10028
ENCODING 1050
SWIDTH 450 0
DWIDTH 10 0
BBX 9 12 0 0
BITMAP
E780
4100
4600
4C00
5000
6C00
6E00
4600
4600
4100
4100
E780
ENDCHAR
STARTCHAR afii10029
ENCODING 1051
SWIDTH 500 0
DWIDTH 11 0
BBX 10 12 0 0
BITMAP
3FC0
1080
1080
1080
1080
1080
1080
1080
1080
9080
9080
61C0
ENDCHAR
STARTCHAR afii10030
ENCODING 1052
SWIDTH 600 0
DWIDTH 13 0
BBX 12 12 0 0
BITMAP
C030
6060
50A0
4D20
4620
4620
4620
4020
4020
4020
4020
E070
ENDCHAR
STARTCHAR afii10031
ENCODING 1053
SWIDTH 500 0
DWIDTH 11 0
BBX 10 12 0 0
BITMAP
E1C0
4080
4080
4080
4080
7F80
7F80
4080
4080
4080
4080
E1C0
ENDCHAR
STARTCHAR afii10032
ENCODING 1054
SWIDTH 500 0
DWIDTH 11 0
BBX 10 12 0 0
BITMAP
1E00
6180
4080
8040
8040
8040
8040
8040
8040
4080
6180
1E00
ENDCHAR
STARTCHAR afii10033
ENCODING 1055
SWIDTH 500 0
DWIDTH 11 0
BBX 10 12 0 0
BITMAP
FFC0
4080
4080
4080
4080
4080
4080
4080
4080
4080
4080
E1C0
ENDCHAR
STARTCHAR afii10034
ENCODING 1056
SWIDTH 450 0
DWIDTH 10 0
BBX 9 12 0 0
BITMAP
FE00
4100
4080
4080
4100
7E00
7E00
4000
4000
4000
4000
E000
ENDCHAR
STARTCHAR afii10035
ENCODING 1057
SWIDTH 450 0
DWIDTH 10 0
BBX 9 12 0 0
BITMAP
1E80
6180
4080
8000
8000
8000
8000
8000
8000
4080
6180
1E00
ENDCHAR
STARTCHAR afii10036
ENCODING 1058
SWIDTH 400 0
DWIDTH 9 0
BBX 8 12 0 0
BITMAP
FF
91
10
10
10
10
10
10
10
10
10
3C
ENDCHAR
STARTCHAR afii10037
ENCODING 1059
SWIDTH 500 0
DWIDTH 11 0
BBX 10 12 0 0
BITMAP
E1C0
4080
2100
2100
1600
0C00
0C00
0C00
1000
1000
A000
4000
ENDCHAR
STARTCHAR afii10038
ENCODING 1060
SWIDTH 500 0
DWIDTH 11 0
BBX 10 12 0 0
BITMAP
1E00
0C00
3F00
4C80
8C40
8C40
8C40
8C40
4C80
3F00
0C00
1E00
ENDCHAR
STARTCHAR afii10039
ENCODING 1061
SWIDTH 500 0
DWIDTH 11 0
BBX 10 12 0 0
BITMAP
E1C0
4080
2100
2100
1600
0C00
1E00
1600
2100
2100
4080
E1C0
ENDCHAR
STARTCHAR afii10040
ENCODING 1062
SWIDTH 500 0
DWIDTH 11 0
BBX 10 14 0 -2
BITMAP
E1C0
4080
4080
4080
4080
4080
4080
4080
4080
4080
4080
FFC0
0040
0040
ENDCHAR
STARTCHAR afii10041
ENCODING 1063
SWIDTH 500 0
DWIDTH 11 0
BBX 10 12 0 0
BITMAP
E1C0
4080
4080
4080
2180
1E80
1E80
0080
0080
0080
0080
01C0
ENDCHAR
STARTCHAR afii10042
ENCODING 1064
SWIDTH 600 0
DWIDTH 13 0
BBX 12 12 0 0
BITMAP
EF70
4620
4620
4620
4620
4620
4620
4620
4620
4620
4620
FFF0
ENDCHAR
STARTCHAR afii10043
ENCODING 1065
SWIDTH 600 0
DWIDTH 13 0
BBX 12 14 0 -2
BITMAP
EF70
4620
4620
4620
4620
4620
4620
4620
4620
4620
4620
FFF0
0010
0010
ENDCHAR
STARTCHAR afii10044
ENCODING 1066
SWIDTH 550 0
DWIDTH 12 0
BBX 11 12 0 0
BITMAP
FC00
9000
1000
1000
1000
1F80
1FC0
1040
1020
1020
1040
3F80
ENDCHAR
STARTCHAR afii10045
ENCODING 1067
SWIDTH 600 0
DWIDTH 13 0
BBX 12 12 0 0
BITMAP
E070
4020
4020
4020
4020
7E20
7F20
4120
40A0
40A0
4120
FE70
ENDCHAR
STARTCHAR afii10046
ENCODING 1068
SWIDTH 450 0
DWIDTH 10 0
BBX 9 12 0 0
BITMAP
E000
4000
4000
4000
4000
7E00
7F00
4100
4080
4080
4100
FE00
ENDCHAR
STARTCHAR afii10047
ENCODING 1069
SWIDTH 450 0
DWIDTH 10 0
BBX 9 12 0 0
BITMAP
BC00
C700
8100
0080
2080
3F80
3F80
2080
0080
8100
C700
3C00
ENDCHAR
STARTCHAR afii10048
ENCODING 1070
SWIDTH 650 0
DWIDTH 14 0
BBX 13 12 0 0
BITMAP
E1C0
4E30
4C10
5008
5008
7008
7008
5008
5008
4C10
4E30
E1C0
ENDCHAR
STARTCHAR afii10049
ENCODING 1071
SWIDTH 450 0
DWIDTH 10 0
BBX 9 12 0 0
BITMAP
3F80
4100
8100
8100
4100
3F00
3F00
1100
2100
4100
4100
8780
ENDCHAR
STARTCHAR afii10065
ENCODING 1072
SWIDTH 400 0
DWIDTH 9 0
BBX 8 9 0 0
BITMAP
3C
46
06
3E
3E
46
86
8E
77
ENDCHAR
STARTCHAR afii10066
ENCODING 1073
SWIDTH 400 0
DWIDTH 9 0
BBX 8 13 0 0
BITMAP
30
40
80
80
BC
C6
81
81
81
81
81
46
3C
ENDCHAR
STARTCHAR afii10067
ENCODING 1074
SWIDTH 400 0
DWIDTH 9 0
BBX 8 9 0 0
BITMAP
FE
41
41
7F
7E
41
41
41
FE
ENDCHAR
STARTCHAR afii10068
ENCODING 1075
SWIDTH 350 0
DWIDTH 8 0
BBX 7 9 0 0
BITMAP
FE
46
40
40
40
40
40
40
E0
ENDCHAR
STARTCHAR afii10069
ENCODING 1076
SWIDTH 400 0
DWIDTH 9 0
BBX 8 11 0 -2
BITMAP
7F
26
26
26
26
26
46
46
FF
81
81
ENDCHAR
STARTCHAR afii10070
ENCODING 1077
SWIDTH 400 0
DWIDTH 9 0
BBX 8 9 0 0
BITMAP
3C
46
81
FF
FF
80
80
46
3C
ENDCHAR
STARTCHAR afii10072
ENCODING 1078
SWIDTH 700 0
DWIDTH 15 0
BBX 14 9 0 0
BITMAP
77B8
2110
1120
1D60
0D40
17A0
2110
4108
E79C
ENDCHAR
STARTCHAR afii10073
ENCODING 1079
SWIDTH 350 0
DWIDTH 8 0
BBX 7 9 0 0
BITMAP
BC
C6
06
7E
7C
06
06
86
7C
ENDCHAR
STARTCHAR afii10074
ENCODING 1080
SWIDTH 450 0
DWIDTH 10 0
BBX 9 9 0 0
BITMAP
E180
4700
4D00
4D00
4D00
5100
5100
6100
4780
ENDCHAR
STARTCHAR afii10075
ENCODING 1081
SWIDTH 450 0
DWIDTH 10 0
BBX 9 12 0 0
BITMAP
4100
3E00
0000
E180
4700
4D00
4D00
4D00
5100
5100
6100
4780
ENDCHAR
STARTCHAR afii10076
ENCODING 1082
SWIDTH 450 0
DWIDTH 10 0
BBX 9 9 0 0
BITMAP
EF00
4600
4C00
5C00
5000
6C00
4600
4100
E780
ENDCHAR
STARTCHAR afii10077
ENCODING 1083
SWIDTH 400 0
DWIDTH 9 0
BBX 8 9 0 0
BITMAP
7F
26
26
26
26
26
26
26
CF
ENDCHAR
STARTCHAR afii10078
ENCODING 1084
SWIDTH 500 0
DWIDTH 11 0
BBX 10 9 0 0
BITMAP
C0C0
6180
5680
5E80
4C80
4C80
4080
4080
E1C0
ENDCHAR
STARTCHAR afii10079
ENCODING 1085
SWIDTH 450 0
DWIDTH 10 0
BBX 9 9 0 0
BITMAP
E780
4100
4100
7F00
7F00
4100
4100
4100
E780
ENDCHAR
STARTCHAR afii10080
ENCODING 1086
SWIDTH 400 0
DWIDTH 9 0
BBX 8 9 0 0
BITMAP
3C
46
81
81
81
81
81
46
3C
ENDCHAR
STARTCHAR afii10081
ENCODING 1087
SWIDTH 450 0
DWIDTH 10 0
BBX 9 9 0 0
BITMAP
FF80
4100
4100
4100
4100
4100
4100
4100
E780
ENDCHAR
STARTCHAR afii10082
ENCODING 1088
SWIDTH 450 0
DWIDTH 10 0
BBX 9 13 0 -4
BITMAP
DE00
6100
4080
4080
4080
4080
4080
6100
5E00
4000
4000
4000
E000
ENDCHAR
STARTCHAR afii10083
ENCODING 1089
SWIDTH 400 0
DWIDTH 9 0
BBX 8 9 0 0
BITMAP
3D
47
81
81
80
80
81
46
3C
ENDCHAR
STARTCHAR afii10084
ENCODING 1090
SWIDTH 400 0
DWIDTH 9 0
BBX 8 9 0 0
BITMAP
FF
91
10
10
10
10
10
10
3C
ENDCHAR
STARTCHAR afii10085
ENCODING 1091
SWIDTH 400 0
DWIDTH 9 0
BBX 8 13 0 -4
BITMAP
EF
46
46
6E
2C
2C
2C
10
10
20
20
40
80
ENDCHAR
STARTCHAR afii10086
ENCODING 1092
SWIDTH 600 0
DWIDTH 13 0
BBX 12 17 0 -4
BITMAP
0F00
0600
0600
0600
36C0
4F20
8610
8610
8610
8610
8610
4F20
36C0
0600
0600
0600
0F00
ENDCHAR
STARTCHAR afii10087
ENCODING 1093
SWIDTH 400 0
DWIDTH 9 0
BBX 8 9 0 0
BITMAP
EF
46
2C
3C
10
10
2C
46
EF
ENDCHAR
STARTCHAR afii10088
ENCODING 1094
SWIDTH 450 0
DWIDTH 10 0
BBX 9 11 0 -2
BITMAP
E780
4100
4100
4100
4100
4100
4100
4100
FF80
0080
0080
ENDCHAR
STARTCHAR afii10089
ENCODING 1095
SWIDTH 450 0
DWIDTH 10 0
BBX 9 9 0 0
BITMAP
E780
4100
4100
7F00
3F00
0100
0100
0100
0780
ENDCHAR
STARTCHAR afii10090
ENCODING 1096
SWIDTH 600 0
DWIDTH 13 0
BBX 12 9 0 0
BITMAP
EF70
4620
4620
4620
4620
4620
4620
4620
FFF0
ENDCHAR
STARTCHAR afii10091
ENCODING 1097
SWIDTH 600 0
DWIDTH 13 0
BBX 12 11 0 -2
BITMAP
EF70
4620
4620
4620
4620
4620
4620
4620
FFF0
0010
0010
ENDCHAR
STARTCHAR afii10092
ENCODING 1098
SWIDTH 500 0
DWIDTH 11 0
BBX 10 9 0 0
BITMAP
FC00
9000
1000
1F80
1F80
1040
1040
1040
3F80
ENDCHAR
STARTCHAR afii10093
ENCODING 1099
SWIDTH 550 0
DWIDTH 12 0
BBX 11 9 0 0
BITMAP
E0E0
4040
4040
7E40
7E40
4140
4140
4140
FEE0
ENDCHAR
STARTCHAR afii10094
ENCODING 1100
SWIDTH 400 0
DWIDTH 9 0
BBX 8 9 0 0
BITMAP
E0
40
40
7E
7E
41
41
41
FE
ENDCHAR
STARTCHAR afii10095
ENCODING 1101
SWIDTH 400 0
DWIDTH 9 0
BBX 8 9 0 0
BITMAP
BC
C6
91
9F
1F
11
81
46
3C
ENDCHAR
STARTCHAR afii10096
ENCODING 1102
SWIDTH 550 0
DWIDTH 12 0
BBX 11 9 0 0
BITMAP
E780
4C40
5020
7020
7020
5020
5020
4C40
E780
ENDCHAR
STARTCHAR afii10097
ENCODING 1103
SWIDTH 400 0
DWIDTH 9 0
BBX 8 9 0 0
BITMAP
7F
86
86
86
86
7E
16
26
CF
ENDCHAR
STARTCHAR uni0450
ENCODING 1104
SWIDTH 400 0
DWIDTH 9 0
BBX 8 12 0 0
BITMAP
20
10
00
3C
46
81
FF
FF
80
80
46
3C
ENDCHAR
STARTCHAR afii10071
ENCODING 1105
SWIDTH 400 0
DWIDTH 9 0
BBX 8 11 0 0
BITMAP
2C
00
3C
46
81
FF
FF
80
80
46
3C
ENDCHAR
STARTCHAR afii10099
ENCODING 1106
SWIDTH 400 0
DWIDTH 9 0
BBX 8 17 0 -4
BITMAP
C0
40
E0
40
5C
66
41
41
41
41
41
41
E1
01
01
26
1C
ENDCHAR
STARTCHAR afii10100
ENCODING 1107
SWIDTH 350 0
DWIDTH 8 0
BBX 7 12 0 0
BITMAP
10
20
00
FE
46
40
40
40
40
40
40
E0
ENDCHAR
STARTCHAR afii10101
ENCODING 1108
SWIDTH 400 0
DWIDTH 9 0
BBX 8 9 0 0
BITMAP
3D
47
91
F1
F0
90
81
46
3C
ENDCHAR
STARTCHAR afii10102
ENCODING 1109
SWIDTH 350 0
DWIDTH 8 0
BBX 7 9 0 0
BITMAP
76
8E
86
E6
60
1C
86
C6
BC
ENDCHAR
STARTCHAR afii10103
ENCODING 1110
SWIDTH 200 0
DWIDTH 4 0
BBX 3 13 0 0
BITMAP
40
40
00
00
C0
40
40
40
40
40
40
40
E0
ENDCHAR
STARTCHAR afii10104
ENCODING 1111
SWIDTH 200 0
DWIDTH 4 0
BBX 5 12 -1 0
BITMAP
D8
00
00
60
20
20
20
20
20
20
20
70
ENDCHAR
STARTCHAR afii10105
ENCODING 1112
SWIDTH 150 0
DWIDTH 3 0
BBX 4 17 -2 -4
BITMAP
10
10
00
00
30
10
10
10
10
10
10
10
10
10
10
20
C0
ENDCHAR
STARTCHAR afii10106
ENCODING 1113
SWIDTH 600 0
DWIDTH 13 0
BBX 12 9 0 0
BITMAP
7F00
2600
2600
27E0
27E0
2610
2610
2610
CFE0
ENDCHAR
STARTCHAR afii10107
ENCODING 1114
SWIDTH 600 0
DWIDTH 13 0
BBX 12 9 0 0
BITMAP
EF00
4600
4600
7FE0
7FE0
4610
4610
4610
EFE0
ENDCHAR
STARTCHAR afii10108
ENCODING 1115
SWIDTH 450 0
DWIDTH 10 0
BBX 9 13 0 0
BITMAP
C000
4000
E000
4000
5C00
6600
4100
4100
4100
4100
4100
4100
E780
ENDCHAR
STARTCHAR afii10109
ENCODING 1116
SWIDTH 450 0
DWIDTH 10 0
BBX 9 12 0 0
BITMAP
0C00
1000
0000
EF00
4600
4C00
5C00
5000
6C00
4600
4100
E780
ENDCHAR
STARTCHAR uni045D
ENCODING 1117
SWIDTH 450 0
DWIDTH 10 0
BBX 9 12 0 0
BITMAP
1000
0C00
0000
E180
4700
4D00
4D00
4D00
5100
5100
6100
4780
ENDCHAR
STARTCHAR afii10110
ENCODING 1118
SWIDTH 400 0
DWIDTH 9 0
BBX 8 16 0 -4
BITMAP
46
3C
00
EF
46
46
6E
2C
2C
2C
10
10
20
20
40
80
ENDCHAR
STARTCHAR afii10193
ENCODING 1119
SWIDTH 450 0
DWIDTH 10 0
BBX 9 11 0 -2
BITMAP
E780
4100
4100
4100
4100
4100
4100
4100
FF80
0C00
0C00
ENDCHAR
STARTCHAR uni0460
ENCODING 1120
SWIDTH 700 0
DWIDTH 15 0
BBX 14 12 0 0
BITMAP
E79C
4108
4108
2110
2110
2110
37B0
16A0
16A0
16A0
0C40
0C40
ENDCHAR
STARTCHAR uni0461
ENCODING 1121
SWIDTH 500 0
DWIDTH 11 0
BBX 10 9 0 0
BITMAP
DDC0
4C80
4C80
6D80
2D00
2D00
2D00
1600
1600
ENDCHAR
STARTCHAR uni0462
ENCODING 1122
SWIDTH 450 0
DWIDTH 10 0
BBX 10 12 -1 0
BITMAP
7000
2000
F800
A800
2000
3F00
3F80
2080
2040
2040
2080
7F00
ENDCHAR
STARTCHAR uni0463
ENCODING 1123
SWIDTH 400 0
DWIDTH 9 0
BBX 9 9 -1 0
BITMAP
7000
2000
F800
FF00
BF00
2080
2080
2080
7F00
ENDCHAR
STARTCHAR uni0464
ENCODING 1124
SWIDTH 600 0
DWIDTH 13 0
BBX 12 12 0 0
BITMAP
E1D0
4E30
4C10
5000
5040
7FC0
7FC0
5040
5000
4C10
4E30
E1C0
ENDCHAR
STARTCHAR uni0465
ENCODING 1125
SWIDTH 550 0
DWIDTH 12 0
BBX 11 9 0 0
BITMAP
E7A0
4C60
5120
7F20
7F00
5100
5020
4C40
E780
ENDCHAR
STARTCHAR uni0466
ENCODING 1126
SWIDTH 500 0
DWIDTH 11 0
BBX 10 12 0 0
BITMAP
1C00
0C00
1600
1600
1600
2100
2100
2100
3700
5680
4C80
EDC0
ENDCHAR
STARTCHAR uni0467
ENCODING 1127
SWIDTH 400 0
DWIDTH 9 0
BBX 8 9 0 0
BITMAP
10
10
2C
2C
2C
2C
56
56
D7
ENDCHAR
STARTCHAR uni0468
ENCODING 1128
SWIDTH 700 0
DWIDTH 15 0
BBX 14 12 0 0
BITMAP
E0C0
4040
40A0
40A0
40A0
7F10
7F10
4110
41B0
46A8
4648
EF5C
ENDCHAR
STARTCHAR uni0469
ENCODING 1129
SWIDTH 600 0
DWIDTH 13 0
BBX 12 9 0 0
BITMAP
E080
4080
4140
7F40
7F40
4140
46A0
46A0
EEB0
ENDCHAR
STARTCHAR uni046A
ENCODING 1130
SWIDTH 600 0
DWIDTH 13 0
BBX 12 12 0 0
BITMAP
7FE0
2040
1080
0D00
0600
1F80
3FC0
2640
4620
4620
4620
EF70
ENDCHAR
STARTCHAR uni046B
ENCODING 1131
SWIDTH 600 0
DWIDTH 13 0
BBX 12 9 0 0
BITMAP
3FC0
1080
0D00
0F00
0600
3FC0
4620
4620
EF70
ENDCHAR
STARTCHAR uni046C
ENCODING 1132
SWIDTH 800 0
DWIDTH 18 0
BBX 17 12 0 0
BITMAP
E7FE00
410400
408800
405000
402000
7FF800
7FFC00
412400
462200
462200
462200
EF7780
ENDCHAR
STARTCHAR uni046D
ENCODING 1133
SWIDTH 800 0
DWIDTH 18 0
BBX 17 9 0 0
BITMAP
E1FC00
408800
405000
407000
402000
7FFC00
462200
462200
EF7780
ENDCHAR
STARTCHAR uni046E
ENCODING 1134
SWIDTH 400 0
DWIDTH 9 0
BBX 8 19 0 -4
BITMAP
2C
10
00
BC
C6
81
01
06
3C
3E
06
01
01
06
7C
80
80
7C
06
ENDCHAR
STARTCHAR uni046F
ENCODING 1135
SWIDTH 350 0
DWIDTH 8 0
BBX 7 16 0 -4
BITMAP
4C
30
00
BC
C6
06
7E
7C
06
06
06
7C
80
80
7C
06
ENDCHAR
STARTCHAR uni0470
ENCODING 1136
SWIDTH 500 0
DWIDTH 11 0
BBX 11 12 0 0
BITMAP
9E20
4C40
4C80
4C80
2D00
1E00
1E00
0C00
0C00
0C00
0C00
1E00
ENDCHAR
STARTCHAR uni0471
ENCODING 1137
SWIDTH 500 0
DWIDTH 11 0
BBX 11 13 0 -4
BITMAP
8C20
4C40
4C40
4CC0
4C80
4C80
4C80
2D00
1E00
0C00
0C00
0C00
0C00
ENDCHAR
STARTCHAR uni0472
ENCODING 1138
SWIDTH 500 0
DWIDTH 11 0
BBX 10 12 0 0
BITMAP
1E00
6180
4080
8040
B040
CCC0
CFC0
8740
8040
4080
6180
1E00
ENDCHAR
STARTCHAR uni0473
ENCODING 1139
SWIDTH 400 0
DWIDTH 9 0
BBX 8 9 0 0
BITMAP
3C
46
81
B7
B7
DD
81
46
3C
ENDCHAR
STARTCHAR uni0474
ENCODING 1140
SWIDTH 500 0
DWIDTH 11 0
BBX 11 12 0 0
BITMAP
E040
40A0
4080
2100
2100
2100
3700
1600
1600
1600
0C00
0C00
ENDCHAR
STARTCHAR uni0475
ENCODING 1141
SWIDTH 400 0
DWIDTH 9 0
BBX 9 9 0 0
BITMAP
E100
4680
4600
6E00
2C00
2C00
2C00
1000
1000
ENDCHAR
STARTCHAR uni0476
ENCODING 1142
SWIDTH 500 0
DWIDTH 11 0
BBX 11 15 0 0
BITMAP
2C00
1600
0000
E040
40A0
4080
2100
2100
2100
3700
1600
1600
1600
0C00
0C00
ENDCHAR
STARTCHAR uni0477
ENCODING 1143
SWIDTH 400 0
DWIDTH 9 0
BBX 9 12 0 0
BITMAP
5000
2C00
0000
E100
4680
4600
6E00
2C00
2C00
2C00
1000
1000
ENDCHAR
STARTCHAR uni0478
ENCODING 1144
SWIDTH 850 0
DWIDTH 19 0
BBX 18 16 0 -4
BITMAP
1E0000
618000
408000
807BC0
805180
805180
805B80
804A00
804A00
408A00
618400
1E0400
000800
000800
001000
002000
ENDCHAR
STARTCHAR uni0479
ENCODING 1145
SWIDTH 750 0
DWIDTH 17 0
BBX 15 13 0 -4
BITMAP
3CEE
4644
8144
816C
8128
8128
8128
4610
3C10
0020
0020
0040
0080
ENDCHAR
STARTCHAR uni047A
ENCODING 1146
SWIDTH 550 0
DWIDTH 12 0
BBX 11 14 0 -1
BITMAP
0E00
1F00
6EC0
4040
8020
8020
8020
8020
8020
8020
4040
6EC0
1F00
0E00
ENDCHAR
STARTCHAR uni047B
ENCODING 1147
SWIDTH 450 0
DWIDTH 10 0
BBX 9 11 0 -1
BITMAP
1C00
3E00
5D00
8080
8080
8080
8080
8080
5D00
3E00
1C00
ENDCHAR
STARTCHAR uni047C
ENCODING 1148
SWIDTH 700 0
DWIDTH 15 0
BBX 14 15 0 0
BITMAP
0040
0FC0
0C00
2010
4708
4108
8004
8004
8784
8784
8104
8104
4688
4688
3C70
ENDCHAR
STARTCHAR uni047D
ENCODING 1149
SWIDTH 600 0
DWIDTH 13 0
BBX 12 13 0 0
BITMAP
0020
7FE0
4000
0E00
2640
4020
8010
8F10
8F10
8610
8610
4D20
30C0
ENDCHAR
STARTCHAR uni047E
ENCODING 1150
SWIDTH 700 0
DWIDTH 15 0
BBX 14 15 0 0
BITMAP
1FE0
1120
0000
E79C
4108
4108
2110
2110
2110
37B0
16A0
16A0
16A0
0C40
0C40
ENDCHAR
STARTCHAR uni047F
ENCODING 1151
SWIDTH 500 0
DWIDTH 11 0
BBX 10 12 0 0
BITMAP
7F80
4C80
0000
DDC0
4C80
4C80
6D80
2D00
2D00
2D00
1600
1600
ENDCHAR
STARTCHAR uni0480
ENCODING 1152
SWIDTH 450 0
DWIDTH 10 0
BBX 9 14 0 -2
BITMAP
1E80
6180
4080
8000
8000
8000
8000
8000
8000
4000
6000
1E00
0600
0600
ENDCHAR
STARTCHAR uni0481
ENCODING 1153
SWIDTH 400 0
DWIDTH 9 0
BBX 8 11 0 -2
BITMAP
3D
47
81
81
80
80
80
40
3C
0C
0C
ENDCHAR
STARTCHAR uni2000
ENCODING 8192
SWIDTH 500 0
DWIDTH 11 0
BBX 1 1 0 0
BITMAP
00
ENDCHAR
STARTCHAR uni2001
ENCODING 8193
SWIDTH 1000 0
DWIDTH 22 0
BBX 1 1 0 0
BITMAP
00
ENDCHAR
STARTCHAR uni2002
ENCODING 8194
SWIDTH 500 0
DWIDTH 11 0
BBX 1 1 0 0
BITMAP
00
ENDCHAR
STARTCHAR uni2003
ENCODING 8195
SWIDTH 1000 0
DWIDTH 22 0
BBX 1 1 0 0
BITMAP
00
ENDCHAR
STARTCHAR uni2004
ENCODING 8196
SWIDTH 350 0
DWIDTH 8 0
BBX 1 1 0 0
BITMAP
00
ENDCHAR
STARTCHAR uni2005
ENCODING 8197
SWIDTH 250 0
DWIDTH 6 0
BBX 1 1 0 0
BITMAP
00
ENDCHAR
STARTCHAR uni2006
ENCODING 8198
SWIDTH 150 0
DWIDTH 3 0
BBX 1 1 0 0
BITMAP
00
ENDCHAR
STARTCHAR uni2007
ENCODING 8199
SWIDTH 400 0
DWIDTH 9 0
BBX 1 1 0 0
BITMAP
00
ENDCHAR
STARTCHAR uni2008
ENCODING 8200
SWIDTH 200 0
DWIDTH 4 0
BBX 1 1 0 0
BITMAP
00
ENDCHAR
STARTCHAR uni2009
ENCODING 8201
SWIDTH 150 0
DWIDTH 3 0
BBX 1 1 0 0
BITMAP
00
ENDCHAR
STARTCHAR uni200A
ENCODING 8202
SWIDTH 50 0
DWIDTH 1 0
BBX 1 1 0 0
BITMAP
00
ENDCHAR
STARTCHAR uni200B
ENCODING 8203
SWIDTH 0 0
DWIDTH 0 0
BBX 1 1 0 0
BITMAP
00
ENDCHAR
STARTCHAR uni200C
ENCODING 8204
SWIDTH 0 0
DWIDTH 0 0
BBX 1 1 0 0
BITMAP
00
ENDCHAR
STARTCHAR uni200D
ENCODING 8205
SWIDTH 0 0
DWIDTH 0 0
BBX 1 1 0 0
BITMAP
00
ENDCHAR
STARTCHAR uni200E
ENCODING 8206
SWIDTH 0 0
DWIDTH 0 0
BBX 1 1 0 0
BITMAP
00
ENDCHAR
STARTCHAR uni200F
ENCODING 8207
SWIDTH 0 0
DWIDTH 0 0
BBX 1 1 0 0
BITMAP
00
ENDCHAR
STARTCHAR uni2010
ENCODING 8208
SWIDTH 350 0
DWIDTH 8 0
BBX 7 2 0 4
BITMAP
FE
FE
ENDCHAR
STARTCHAR uni2011
ENCODING 8209
SWIDTH 350 0
DWIDTH 8 0
BBX 7 2 0 4
BITMAP
FE
FE
ENDCHAR
STARTCHAR uni2012
ENCODING 8210
SWIDTH 400 0
DWIDTH 9 0
BBX 8 2 0 4
BITMAP
FF
FF
ENDCHAR
STARTCHAR endash
ENCODING 8211
SWIDTH 400 0
DWIDTH 9 0
BBX 8 2 0 4
BITMAP
FF
FF
ENDCHAR
STARTCHAR emdash
ENCODING 8212
SWIDTH 650 0
DWIDTH 14 0
BBX 13 2 0 4
BITMAP
FFF8
FFF8
ENDCHAR
STARTCHAR afii00208
ENCODING 8213
SWIDTH 650 0
DWIDTH 14 0
BBX 13 2 0 4
BITMAP
FFF8
FFF8
ENDCHAR
STARTCHAR uni2016
ENCODING 8214
SWIDTH 200 0
DWIDTH 4 0
BBX 3 16 0 -3
BITMAP
A0
A0
A0
A0
A0
A0
A0
A0
A0
A0
A0
A0
A0
A0
A0
A0
ENDCHAR
STARTCHAR underscoredbl
ENCODING 8215
SWIDTH 400 0
DWIDTH 9 0
BBX 8 3 0 -3
BITMAP
FF
00
FF
ENDCHAR
STARTCHAR quoteleft
ENCODING 8216
SWIDTH 150 0
DWIDTH 3 0
BBX 2 4 0 9
BITMAP
40
80
C0
C0
ENDCHAR
STARTCHAR quoteright
ENCODING 8217
SWIDTH 150 0
DWIDTH 3 0
BBX 2 4 0 9
BITMAP
C0
C0
40
80
ENDCHAR
STARTCHAR quotesinglbase
ENCODING 8218
SWIDTH 150 0
DWIDTH 3 0
BBX 2 4 0 -2
BITMAP
C0
C0
40
80
ENDCHAR
STARTCHAR quotereversed
ENCODING 8219
SWIDTH 150 0
DWIDTH 3 0
BBX 2 4 0 9
BITMAP
C0
C0
80
40
ENDCHAR
STARTCHAR quotedblleft
ENCODING 8220
SWIDTH 300 0
DWIDTH 7 0
BBX 6 4 0 9
BITMAP
4C
90
DC
DC
ENDCHAR
STARTCHAR quotedblright
ENCODING 8221
SWIDTH 300 0
DWIDTH 7 0
BBX 6 4 0 9
BITMAP
DC
DC
4C
90
ENDCHAR
STARTCHAR quotedblbase
ENCODING 8222
SWIDTH 300 0
DWIDTH 7 0
BBX 6 4 0 -2
BITMAP
DC
DC
4C
90
ENDCHAR
STARTCHAR uni201F
ENCODING 8223
SWIDTH 300 0
DWIDTH 7 0
BBX 6 4 0 9
BITMAP
DC
DC
90
4C
ENDCHAR
STARTCHAR dagger
ENCODING 8224
SWIDTH 300 0
DWIDTH 7 0
BBX 6 8 0 5
BITMAP
20
20
FC
20
20
20
20
20
ENDCHAR
STARTCHAR daggerdbl
ENCODING 8225
SWIDTH 300 0
DWIDTH 7 0
BBX 6 9 0 4
BITMAP
20
20
FC
20
20
FC
20
20
20
ENDCHAR
STARTCHAR bullet
ENCODING 8226
SWIDTH 300 0
DWIDTH 7 0
BBX 6 6 0 3
BITMAP
70
FC
FC
FC
FC
70
ENDCHAR
STARTCHAR uni2023
ENCODING 8227
SWIDTH 300 0
DWIDTH 7 0
BBX 6 6 0 3
BITMAP
80
E0
FC
FC
E0
80
ENDCHAR
STARTCHAR uni2024
ENCODING 8228
SWIDTH 200 0
DWIDTH 4 0
BBX 1 2 1 0
BITMAP
80
80
ENDCHAR
STARTCHAR uni2025
ENCODING 8229
SWIDTH 350 0
DWIDTH 8 0
BBX 5 2 1 0
BITMAP
98
98
ENDCHAR
STARTCHAR ellipsis
ENCODING 8230
SWIDTH 500 0
DWIDTH 11 0
BBX 8 2 1 0
BITMAP
99
99
ENDCHAR
STARTCHAR uni2027
ENCODING 8231
SWIDTH 100 0
DWIDTH 2 0
BBX 1 3 0 5
BITMAP
80
80
80
ENDCHAR
STARTCHAR perthousand
ENCODING 8240
SWIDTH 650 0
DWIDTH 14 0
BBX 13 12 0 0
BITMAP
6F00
9100
9600
9600
6C00
0C00
0DB0
0DB0
1648
1648
2648
21B0
ENDCHAR
STARTCHAR uni2031
ENCODING 8241
SWIDTH 800 0
DWIDTH 18 0
BBX 17 12 0 0
BITMAP
6F0000
910000
960000
960000
6C0000
0C0000
0DB600
0DB600
164980
164980
264980
21B600
ENDCHAR
STARTCHAR guilsinglleft
ENCODING 8249
SWIDTH 250 0
DWIDTH 6 0
BBX 4 8 0 1
BITMAP
10
20
40
C0
80
40
20
10
ENDCHAR
STARTCHAR guilsinglright
ENCODING 8250
SWIDTH 250 0
DWIDTH 6 0
BBX 4 8 0 1
BITMAP
80
40
20
30
10
20
40
80
ENDCHAR
STARTCHAR exclamdbl
ENCODING 8252
SWIDTH 200 0
DWIDTH 4 0
BBX 3 12 0 0
BITMAP
A0
A0
A0
A0
A0
A0
A0
A0
A0
00
A0
A0
ENDCHAR
STARTCHAR uni203D
ENCODING 8253
SWIDTH 400 0
DWIDTH 9 0
BBX 8 13 0 0
BITMAP
10
3C
56
91
11
16
1C
1C
10
10
00
10
10
ENDCHAR
STARTCHAR fraction
ENCODING 8260
SWIDTH 200 0
DWIDTH 4 0
BBX 12 12 -4 0
BITMAP
0010
0060
00C0
0100
0200
0400
0C00
0800
1000
2000
4000
8000
ENDCHAR
STARTCHAR uni2047
ENCODING 8263
SWIDTH 800 0
DWIDTH 18 0
BBX 17 12 0 0
BITMAP
3C1C00
462200
814180
010180
060200
0C0400
1C0C00
100800
100800
000000
100800
100800
ENDCHAR
STARTCHAR uni2048
ENCODING 8264
SWIDTH 500 0
DWIDTH 11 0
BBX 10 12 0 0
BITMAP
3C40
4640
8140
0140
0640
0C40
1C40
1040
1040
0000
1040
1040
ENDCHAR
STARTCHAR uni2049
ENCODING 8265
SWIDTH 500 0
DWIDTH 11 0
BBX 10 12 0 0
BITMAP
8F00
9080
A040
8040
8080
8100
8700
8600
8600
0000
8600
8600
ENDCHAR
STARTCHAR Euro
ENCODING 8364
SWIDTH 550 0
DWIDTH 12 0
BBX 11 12 0 0
BITMAP
07A0
1C60
1020
2000
FC00
2000
FC00
FC00
2000
1020
1C60
0780
ENDCHAR
STARTCHAR uni2117
ENCODING 8471
SWIDTH 600 0
DWIDTH 13 0
BBX 12 12 0 0
BITMAP
0F00
30C0
4020
5F20
9090
9F10
9F10
9010
5020
4020
30C0
0F00
ENDCHAR
STARTCHAR uni2120
ENCODING 8480
SWIDTH 500 0
DWIDTH 11 0
BBX 10 4 0 9
BITMAP
6C40
CEC0
2D40
CC40
ENDCHAR
STARTCHAR trademark
ENCODING 8482
SWIDTH 500 0
DWIDTH 11 0
BBX 10 4 0 9
BITMAP
EC40
4EC0
4D40
4C40
ENDCHAR
STARTCHAR Omega
ENCODING 8486
SWIDTH 550 0
DWIDTH 12 0
BBX 11 12 0 0
BITMAP
1F00
60C0
4040
8020
8020
8020
C060
4040
60C0
1100
9120
F1E0
ENDCHAR
STARTCHAR uni2127
ENCODING 8487
SWIDTH 550 0
DWIDTH 12 0
BBX 11 12 0 0
BITMAP
F1E0
9120
1100
60C0
4040
8020
8020
8020
8020
4040
60C0
1F00
ENDCHAR
STARTCHAR uni21E7
ENCODING 8679
SWIDTH 500 0
DWIDTH 11 0
BBX 10 12 0 0
BITMAP
0C00
1600
2100
4080
E1C0
2100
2100
2100
2100
2100
2100
3F00
ENDCHAR
STARTCHAR uni2200
ENCODING 8704
SWIDTH 500 0
DWIDTH 11 0
BBX 10 12 0 0
BITMAP
E1C0
4080
4080
2100
3F00
2100
3700
1600
1600
1600
0C00
1C00
ENDCHAR
STARTCHAR uni2201
ENCODING 8705
SWIDTH 350 0
DWIDTH 8 0
BBX 7 12 0 0
BITMAP
36
4E
46
80
80
80
80
80
80
40
46
3C
ENDCHAR
STARTCHAR partialdiff
ENCODING 8706
SWIDTH 400 0
DWIDTH 9 0
BBX 8 13 0 0
BITMAP
30
0C
06
01
1D
27
41
C1
81
81
86
4C
30
ENDCHAR
STARTCHAR uni2203
ENCODING 8707
SWIDTH 450 0
DWIDTH 10 0
BBX 9 12 0 0
BITMAP
FF80
8100
0100
0100
2100
3F00
3F00
2100
0100
0100
8100
FF80
ENDCHAR
STARTCHAR uni2204
ENCODING 8708
SWIDTH 450 0
DWIDTH 10 0
BBX 9 16 0 -2
BITMAP
0600
0600
FF80
8D00
0D00
0D00
3100
3F00
3F00
3100
2100
2100
A100
FF80
4000
4000
ENDCHAR
STARTCHAR uni2205
ENCODING 8709
SWIDTH 600 0
DWIDTH 13 0
BBX 12 12 0 0
BITMAP
1F90
2060
4060
8090
8110
8610
8E10
8C10
9010
6020
6040
9F80
ENDCHAR
STARTCHAR Delta
ENCODING 8710
SWIDTH 500 0
DWIDTH 11 0
BBX 10 12 0 0
BITMAP
0C00
0C00
0C00
1600
1600
2100
2100
2100
4080
4080
8040
FFC0
ENDCHAR
STARTCHAR uni2207
ENCODING 8711
SWIDTH 500 0
DWIDTH 11 0
BBX 10 12 0 0
BITMAP
FFC0
8040
4080
4080
2100
2100
3700
1600
1600
0C00
0C00
0C00
ENDCHAR
STARTCHAR uni2208
ENCODING 8712
SWIDTH 400 0
DWIDTH 9 0
BBX 8 12 0 0
BITMAP
1F
20
40
80
80
FF
FF
80
80
40
20
1F
ENDCHAR
STARTCHAR uni2209
ENCODING 8713
SWIDTH 400 0
DWIDTH 9 0
BBX 8 16 0 -2
BITMAP
06
06
1F
2C
4C
8C
90
FF
FF
90
A0
60
20
5F
40
40
ENDCHAR
STARTCHAR uni220A
ENCODING 8714
SWIDTH 300 0
DWIDTH 7 0
BBX 6 9 0 0
BITMAP
3C
40
80
FC
FC
80
80
40
3C
ENDCHAR
STARTCHAR uni220B
ENCODING 8715
SWIDTH 400 0
DWIDTH 9 0
BBX 8 12 0 0
BITMAP
F0
0C
06
01
01
FF
FF
01
01
06
0C
F0
ENDCHAR
STARTCHAR uni220C
ENCODING 8716
SWIDTH 400 0
DWIDTH 9 0
BBX 8 16 0 -2
BITMAP
06
06
F6
0C
0E
0D
11
FF
FF
11
21
26
2C
F0
40
40
ENDCHAR
STARTCHAR uni220D
ENCODING 8717
SWIDTH 300 0
DWIDTH 7 0
BBX 6 9 0 0
BITMAP
E0
10
0C
FC
FC
0C
0C
10
E0
ENDCHAR
STARTCHAR product
ENCODING 8719
SWIDTH 550 0
DWIDTH 12 0
BBX 11 16 0 -3
BITMAP
FFE0
4040
4040
4040
4040
4040
4040
4040
4040
4040
4040
4040
4040
4040
4040
E0E0
ENDCHAR
STARTCHAR uni2210
ENCODING 8720
SWIDTH 550 0
DWIDTH 12 0
BBX 11 16 0 -3
BITMAP
E0E0
4040
4040
4040
4040
4040
4040
4040
4040
4040
4040
4040
4040
4040
4040
FFE0
ENDCHAR
STARTCHAR summation
ENCODING 8721
SWIDTH 550 0
DWIDTH 12 0
BBX 11 16 0 -3
BITMAP
FFE0
4020
4000
2000
2000
1000
1000
1C00
0C00
1000
1000
2000
2000
4000
4020
FFE0
ENDCHAR
STARTCHAR radical
ENCODING 8730
SWIDTH 500 0
DWIDTH 11 0
BBX 10 13 0 0
BITMAP
0040
0040
0080
0080
0100
0100
C600
C600
4600
2C00
2C00
1000
1000
ENDCHAR
STARTCHAR uni221B
ENCODING 8731
SWIDTH 500 0
DWIDTH 11 0
BBX 10 14 0 0
BITMAP
7000
8C40
3040
0C80
8C80
7100
0100
C600
C600
4600
2C00
2C00
1000
1000
ENDCHAR
STARTCHAR uni221C
ENCODING 8732
SWIDTH 500 0
DWIDTH 11 0
BBX 10 14 0 0
BITMAP
1000
3040
5040
FC80
1080
1100
0100
C600
C600
4600
2C00
2C00
1000
1000
ENDCHAR
STARTCHAR uni221D
ENCODING 8733
SWIDTH 450 0
DWIDTH 10 0
BBX 9 6 0 3
BITMAP
6180
9600
8C00
9E00
9600
6180
ENDCHAR
STARTCHAR infinity
ENCODING 8734
SWIDTH 500 0
DWIDTH 11 0
BBX 10 6 0 3
BITMAP
6180
9640
8C40
9E40
9640
6180
ENDCHAR
STARTCHAR integral
ENCODING 8747
SWIDTH 300 0
DWIDTH 7 0
BBX 8 16 -1 -3
BITMAP
0E
13
10
10
10
10
10
10
10
10
10
10
10
10
90
60
ENDCHAR
STARTCHAR uni222C
ENCODING 8748
SWIDTH 550 0
DWIDTH 12 0
BBX 13 16 -1 -3
BITMAP
0E30
1348
1040
1040
1040
1040
1040
1040
1040
1040
1040
1040
1040
1040
9640
6380
ENDCHAR
STARTCHAR uni222D
ENCODING 8749
SWIDTH 800 0
DWIDTH 18 0
BBX 19 16 -1 -3
BITMAP
0E31C0
134A60
104200
104200
104200
104200
104200
104200
104200
104200
104200
104200
104200
104200
965200
638C00
ENDCHAR
STARTCHAR approxequal
ENCODING 8776
SWIDTH 350 0
DWIDTH 8 0
BBX 7 6 0 2
BITMAP
66
9C
9C
00
66
9C
ENDCHAR
STARTCHAR uni2249
ENCODING 8777
SWIDTH 350 0
DWIDTH 8 0
BBX 7 12 0 -1
BITMAP
0C
0C
10
76
9C
BC
20
66
BC
20
40
40
ENDCHAR
STARTCHAR notequal
ENCODING 8800
SWIDTH 400 0
DWIDTH 9 0
BBX 8 8 0 1
BITMAP
0C
0C
FF
FF
10
FF
20
20
ENDCHAR
STARTCHAR equivalence
ENCODING 8801
SWIDTH 350 0
DWIDTH 8 0
BBX 7 6 0 2
BITMAP
FE
00
FE
FE
00
FE
ENDCHAR
STARTCHAR uni2262
ENCODING 8802
SWIDTH 350 0
DWIDTH 8 0
BBX 7 10 0 0
BITMAP
0C
0C
FE
10
FE
FE
20
FE
40
40
ENDCHAR
STARTCHAR uni2263
ENCODING 8803
SWIDTH 350 0
DWIDTH 8 0
BBX 7 8 0 1
BITMAP
FE
00
FE
FE
00
FE
00
FE
ENDCHAR
STARTCHAR lessequal
ENCODING 8804
SWIDTH 250 0
DWIDTH 6 0
BBX 4 10 0 0
BITMAP
10
20
40
80
C0
40
20
10
00
F0
ENDCHAR
STARTCHAR greaterequal
ENCODING 8805
SWIDTH 250 0
DWIDTH 6 0
BBX 4 10 0 0
BITMAP
80
40
20
10
30
20
40
80
00
F0
ENDCHAR
STARTCHAR uni2303
ENCODING 8963
SWIDTH 400 0
DWIDTH 9 0
BBX 8 4 0 8
BITMAP
10
2C
46
81
ENDCHAR
STARTCHAR uni2318
ENCODING 8984
SWIDTH 600 0
DWIDTH 13 0
BBX 12 12 0 0
BITMAP
6060
9090
9090
7FE0
1080
1080
1080
1080
7FE0
9090
9090
6060
ENDCHAR
STARTCHAR uni2325
ENCODING 8997
SWIDTH 650 0
DWIDTH 14 0
BBX 13 12 0 0
BITMAP
F078
1000
0C00
0C00
0600
0600
0700
0100
0100
0080
0080
0078
ENDCHAR
STARTCHAR lozenge
ENCODING 9674
SWIDTH 300 0
DWIDTH 7 0
BBX 6 10 0 1
BITMAP
20
20
50
50
8C
DC
50
50
20
20
ENDCHAR
STARTCHAR uni2661
ENCODING 9825
SWIDTH 700 0
DWIDTH 15 0
BBX 14 12 0 0
BITMAP
3C70
4688
8104
8004
8004
4008
6018
2010
1020
0C40
0680
0100
ENDCHAR
STARTCHAR heart
ENCODING 9829
SWIDTH 700 0
DWIDTH 15 0
BBX 14 12 0 0
BITMAP
3C70
7EF8
FFFC
FFFC
FFFC
7FF8
7FF8
3FF0
1FE0
0FC0
0780
0100
ENDCHAR
STARTCHAR uniF600
ENCODING 62976
SWIDTH 1100 0
DWIDTH 24 0
BBX 25 13 0 0
BITMAP
00000080
00020300
3C000400
46040400
40458400
30A5C400
40C9A800
C1C9A800
8149A800
812A1800
8C220800
56120000
3C080000
ENDCHAR
STARTCHAR uniF601
ENCODING 62977
SWIDTH 1350 0
DWIDTH 30 0
BBX 29 14 0 -2
BITMAP
01800C00
0E603300
3019C0C0
C0060038
3019C0C0
0E603300
0FE03F00
01800C00
0E603300
3019C0C0
C0060038
3019C0C0
0E603300
01800C00
ENDCHAR
STARTCHAR uniF602
ENCODING 62978
SWIDTH 750 0
DWIDTH 17 0
BBX 15 15 0 -2
BITMAP
0180
0E60
3018
C006
B01A
8E62
8182
8182
8082
8082
8082
C086
3098
0EE0
0180
ENDCHAR
STARTCHAR uniF603
ENCODING 62979
SWIDTH 950 0
DWIDTH 21 0
BBX 20 16 0 -2
BITMAP
006000
019800
0E0600
0D9A00
0C6200
0C2200
0E2600
31B9C0
F1F9F0
C06030
B1B9D0
8E2610
862210
C66230
379BC0
0E0600
ENDCHAR
STARTCHAR uniF604
ENCODING 62980
SWIDTH 750 0
DWIDTH 17 0
BBX 15 15 0 -2
BITMAP
0180
0EE0
3D58
D6AE
BD5E
DEEA
ADD6
FFFE
D6AA
ADD6
D6AA
EDD6
36B8
0FE0
0180
ENDCHAR
STARTCHAR uniF605
ENCODING 62981
SWIDTH 750 0
DWIDTH 17 0
BBX 13 13 1 -1
BITMAP
0300
1FC0
7FF0
9FC8
E338
FCF8
FEF8
FEF8
FEF8
FEF8
7EF0
1EC0
0200
ENDCHAR
STARTCHAR uniF606
ENCODING 62982
SWIDTH 800 0
DWIDTH 18 0
BBX 17 15 0 -2
BITMAP
008000
01C000
06A000
008000
008000
008000
008000
008000
008000
008000
008000
076000
9C1980
E00780
F00F80
ENDCHAR
STARTCHAR uniF607
ENCODING 62983
SWIDTH 850 0
DWIDTH 19 0
BBX 18 16 0 -3
BITMAP
110000
2E8000
208000
4D0180
8101C0
8082C0
70FCC0
7CFCC0
1C78C0
1C0180
1C0180
10F180
110980
110980
211180
3E1E00
ENDCHAR
STARTCHAR uniF608
ENCODING 62984
SWIDTH 1200 0
DWIDTH 26 0
BBX 26 22 0 -7
BITMAP
ADBBEFC0
ADBBEFC0
ADBBEFC0
ADBBEFC0
ADBBEFC0
ADBBEFC0
ADBBEFC0
ADBBEFC0
ADBBEFC0
ADBBEFC0
ADBBEFC0
ADBBEFC0
ADBBEFC0
ADBBEFC0
ADBBEFC0
ADBBEFC0
ADBBEFC0
ADBBEFC0
ADBBEFC0
ADBBEFC0
ADBBEFC0
ADBBEFC0
ENDCHAR
STARTCHAR uniF609
ENCODING 62985
SWIDTH 1200 0
DWIDTH 26 0
BBX 26 22 0 -7
BITMAP
FEF7B540
FEF7B540
FEF7B540
FEF7B540
FEF7B540
FEF7B540
FEF7B540
FEF7B540
FEF7B540
FEF7B540
FEF7B540
FEF7B540
FEF7B540
FEF7B540
FEF7B540
FEF7B540
FEF7B540
FEF7B540
FEF7B540
FEF7B540
FEF7B540
FEF7B540
ENDCHAR
STARTCHAR uniF60A
ENCODING 62986
SWIDTH 800 0
DWIDTH 18 0
BBX 18 22 0 -7
BITMAP
801FC0
9D9FC0
A65FC0
AD5FC0
969FC0
AD5FC0
A65FC0
AD5FC0
969FC0
BFDFC0
AD5FC0
A65FC0
AD5FC0
969FC0
AD5FC0
A65FC0
AD5FC0
969FC0
AD5FC0
A65FC0
BFDFC0
9D9FC0
ENDCHAR
STARTCHAR uniF60B
ENCODING 62987
SWIDTH 800 0
DWIDTH 18 0
BBX 18 22 0 -7
BITMAP
FE00C0
FE6CC0
FE92C0
FEAAC0
FE54C0
FEAAC0
FE92C0
FEAAC0
FE54C0
FEFEC0
FEAAC0
FE92C0
FEAAC0
FE54C0
FEAAC0
FE92C0
FEAAC0
FE54C0
FEAAC0
FE92C0
FEFEC0
FE6CC0
ENDCHAR
STARTCHAR uniF60C
ENCODING 62988
SWIDTH 1200 0
DWIDTH 26 0
BBX 19 22 1 -7
BITMAP
AC8820
AC8820
AC8820
AC8820
AC8820
AC8820
AC8820
AC8820
AC8820
AC8820
AC8820
AC8820
AC8820
AC8820
AC8820
AC8820
AC8820
AC8820
AC8820
AC8820
AC8820
AC8820
ENDCHAR
STARTCHAR uniF60D
ENCODING 62989
SWIDTH 1200 0
DWIDTH 26 0
BBX 18 22 7 -7
BITMAP
846540
846540
846540
846540
846540
846540
846540
846540
846540
846540
846540
846540
846540
846540
846540
846540
846540
846540
846540
846540
846540
846540
ENDCHAR
STARTCHAR uniF60E
ENCODING 62990
SWIDTH 800 0
DWIDTH 18 0
BBX 10 22 1 -7
BITMAP
FFC0
CCC0
BB40
AD40
DAC0
AD40
BB40
AD40
DAC0
FFC0
AD40
BB40
AD40
DAC0
AD40
BB40
AD40
DAC0
AD40
BB40
FFC0
CCC0
ENDCHAR
STARTCHAR uniF60F
ENCODING 62991
SWIDTH 800 0
DWIDTH 18 0
BBX 10 22 7 -7
BITMAP
FFC0
C9C0
B6C0
AAC0
D5C0
AAC0
B6C0
AAC0
D5C0
FFC0
AAC0
B6C0
AAC0
D5C0
AAC0
B6C0
AAC0
D5C0
AAC0
B6C0
FFC0
C9C0
ENDCHAR
STARTCHAR uniF610
ENCODING 62992
SWIDTH 800 0
DWIDTH 18 0
BBX 17 12 0 0
BITMAP
FF7F80
914980
100800
100800
100800
100800
100800
100800
100800
100800
100800
3C1C00
ENDCHAR
STARTCHAR uniF611
ENCODING 62993
SWIDTH 400 0
DWIDTH 9 0
BBX 9 13 0 0
BITMAP
4600
4600
4600
4600
FF00
4600
4600
4600
4600
4600
4600
4600
3180
ENDCHAR
STARTCHAR uniF700
ENCODING 63232
SWIDTH 450 0
DWIDTH 10 0
BBX 9 15 0 0
BITMAP
3100
4E00
0000
E780
4100
4600
4C00
5000
6C00
6E00
4600
4600
4100
4100
E780
ENDCHAR
STARTCHAR uniF701
ENCODING 63233
SWIDTH 450 0
DWIDTH 10 0
BBX 9 15 0 0
BITMAP
3100
4E00
0000
C000
4000
4000
4F00
4600
4C00
5C00
5000
6C00
4600
4100
E780
ENDCHAR
STARTCHAR uniF702
ENCODING 63234
SWIDTH 750 0
DWIDTH 17 0
BBX 15 12 0 0
BITMAP
E1C0
4080
4080
4080
4080
4080
4080
4080
4080
4080
4082
FFFE
ENDCHAR
STARTCHAR uniF703
ENCODING 63235
SWIDTH 350 0
DWIDTH 8 0
BBX 7 13 0 0
BITMAP
DC
4C
4C
4C
4C
4C
4C
4C
4C
4C
4C
4C
FE
ENDCHAR
STARTCHAR uniF704
ENCODING 63236
SWIDTH 600 0
DWIDTH 13 0
BBX 12 15 0 0
BITMAP
1E40
2780
0000
C030
6060
50A0
4D20
4620
4620
4620
4020
4020
4020
4020
E070
ENDCHAR
STARTCHAR uniF705
ENCODING 63237
SWIDTH 700 0
DWIDTH 15 0
BBX 14 12 0 0
BITMAP
1E20
21C0
0000
DC60
6690
4108
4108
4108
4108
4108
4108
E79C
ENDCHAR
STARTCHAR uniF706
ENCODING 63238
SWIDTH 900 0
DWIDTH 20 0
BBX 19 12 0 0
BITMAP
1EF1E0
61A0C0
40A0C0
8020C0
8020C0
803FC0
803FC0
8020C0
8020C0
40A0C0
61A0C0
1E71E0
ENDCHAR
STARTCHAR uniF707
ENCODING 63239
SWIDTH 800 0
DWIDTH 18 0
BBX 17 13 0 0
BITMAP
00C000
004000
004000
004000
3D5800
476400
814200
814200
804200
804200
814200
464200
3CE780
ENDCHAR
STARTCHAR uniF708
ENCODING 63240
SWIDTH 850 0
DWIDTH 19 0
BBX 18 12 0 0
BITMAP
3DE3C0
474180
814180
804180
404180
3C7F80
3E7F80
064180
014180
814180
C64180
BCE3C0
ENDCHAR
STARTCHAR uniF709
ENCODING 63241
SWIDTH 750 0
DWIDTH 17 0
BBX 15 13 0 0
BITMAP
0180
0080
0080
0080
76B0
8EC8
8684
E684
6084
1C84
8684
C684
BDCE
ENDCHAR
STARTCHAR uniF70A
ENCODING 63242
SWIDTH 850 0
DWIDTH 19 0
BBX 18 12 0 0
BITMAP
FFE3C0
914180
104180
104180
104180
107F80
107F80
104180
104180
104180
104180
3CE3C0
ENDCHAR
STARTCHAR uniF70B
ENCODING 63243
SWIDTH 650 0
DWIDTH 14 0
BBX 13 13 0 0
BITMAP
4E00
4600
4600
4600
E6C0
4720
4610
4610
4610
4610
4610
4610
3F38
ENDCHAR
STARTCHAR uniF70C
ENCODING 63244
SWIDTH 500 0
DWIDTH 11 0
BBX 10 12 0 0
BITMAP
E180
4080
4080
4080
4080
4080
4080
4080
4080
4080
4080
FFC0
ENDCHAR
STARTCHAR uniF70D
ENCODING 63245
SWIDTH 850 0
DWIDTH 19 0
BBX 18 12 0 0
BITMAP
1EE000
61A000
40A000
802C00
803200
802180
802180
802180
802180
40A180
61A180
1E73C0
ENDCHAR
STARTCHAR uniF70E
ENCODING 63246
SWIDTH 800 0
DWIDTH 18 0
BBX 17 12 0 0
BITMAP
3DC000
474000
814000
805800
406400
3C4200
3E4200
064200
014200
814200
C64200
BCE780
ENDCHAR
STARTCHAR uniF70F
ENCODING 63247
SWIDTH 800 0
DWIDTH 18 0
BBX 17 12 0 0
BITMAP
FFC000
914000
104000
105800
106400
104200
104200
104200
104200
104200
104200
3CE780
ENDCHAR
STARTCHAR uniF710
ENCODING 63248
SWIDTH 1000 0
DWIDTH 22 0
BBX 21 12 0 0
BITMAP
208038
2080C0
210180
264CC0
4C5220
70A220
7CA630
4CA410
869810
860010
810020
80C7C0
ENDCHAR
STARTCHAR uniF711
ENCODING 63249
SWIDTH 500 0
DWIDTH 11 0
BBX 10 12 0 0
BITMAP
9000
A000
C000
A000
9000
0000
0640
0640
0680
0700
0680
0640
ENDCHAR
STARTCHAR uniF712
ENCODING 63250
SWIDTH 750 0
DWIDTH 17 0
BBX 15 12 0 0
BITMAP
9000
A000
C000
A7C0
9600
0780
078E
060E
07D0
000C
0002
001C
ENDCHAR
STARTCHAR uniF713
ENCODING 63251
SWIDTH 500 0
DWIDTH 11 0
BBX 10 12 0 0
BITMAP
9000
A000
C000
A000
9000
0000
01C0
01C0
0600
0180
0040
0780
ENDCHAR
STARTCHAR uniF714
ENCODING 63252
SWIDTH 550 0
DWIDTH 12 0
BBX 11 12 0 0
BITMAP
7000
8000
B000
9180
7600
0600
06E0
06E0
1C40
0040
0040
00E0
ENDCHAR
STARTCHAR uniF715
ENCODING 63253
SWIDTH 600 0
DWIDTH 13 0
BBX 8 8 2 2
BITMAP
B5
5A
B5
5A
FF
B5
5A
B5
ENDCHAR
STARTCHAR uniF71C
ENCODING 63260
SWIDTH 450 0
DWIDTH 10 0
BBX 16 15 -7 -6
BITMAP
007B
008E
0102
0102
0102
0102
0102
008E
007A
0002
000C
0038
7FC0
C000
C000
ENDCHAR
STARTCHAR uniF71D
ENCODING 63261
SWIDTH 150 0
DWIDTH 3 0
BBX 13 19 -11 -6
BITMAP
0008
0008
0000
0000
0018
0008
0008
0008
0008
0008
0008
0008
0008
0008
0010
0060
7F80
8000
8000
ENDCHAR
STARTCHAR uniF71E
ENCODING 63262
SWIDTH 350 0
DWIDTH 8 0
BBX 16 12 -9 -3
BITMAP
003B
0047
0043
0073
0030
000E
0003
0003
0006
0018
7FE0
8000
ENDCHAR
STARTCHAR uniF71F
ENCODING 63263
SWIDTH 400 0
DWIDTH 9 0
BBX 18 15 -10 -6
BITMAP
003BC0
001180
001180
001B80
000B00
000B00
000B00
000400
000400
000800
001000
006000
7F8000
800000
800000
ENDCHAR
STARTCHAR uniFB00
ENCODING 64256
SWIDTH 400 0
DWIDTH 9 0
BBX 10 13 0 0
BITMAP
1CC0
2100
4600
4600
FF00
4600
4600
4600
4600
4600
4600
4600
EF00
ENDCHAR
STARTCHAR fi
ENCODING 64257
SWIDTH 400 0
DWIDTH 9 0
BBX 8 13 0 0
BITMAP
1C
20
40
40
FE
46
46
46
46
46
46
46
EF
ENDCHAR
STARTCHAR fl
ENCODING 64258
SWIDTH 400 0
DWIDTH 9 0
BBX 8 13 0 0
BITMAP
1E
26
46
46
E6
46
46
46
46
46
46
46
EF
ENDCHAR
STARTCHAR uniFB03
ENCODING 64259
SWIDTH 600 0
DWIDTH 13 0
BBX 12 13 0 0
BITMAP
1CC0
2100
4600
4600
FFE0
4620
4620
4620
4620
4620
4620
4620
EF70
ENDCHAR
STARTCHAR uniFB04
ENCODING 64260
SWIDTH 600 0
DWIDTH 13 0
BBX 12 13 0 0
BITMAP
1CE0
2120
4620
4620
FF20
4620
4620
4620
4620
4620
4620
4620
EF70
ENDCHAR
STARTCHAR uniFB05
ENCODING 64261
SWIDTH 400 0
DWIDTH 9 0
BBX 9 13 0 0
BITMAP
1E00
2600
4600
4600
CF00
4600
4600
4600
4600
4600
4600
4600
E180
ENDCHAR
STARTCHAR uniFB06
ENCODING 64262
SWIDTH 550 0
DWIDTH 12 0
BBX 12 13 0 0
BITMAP
0040
0740
0CC0
0C40
76E0
8E40
8640
E640
6040
1C40
8640
C640
BC30
ENDCHAR
STARTCHAR uniFB07
ENCODING 64263
SWIDTH 600 0
DWIDTH 13 0
BBX 13 13 0 0
BITMAP
0020
01A0
0660
0620
3D70
4720
8120
8120
8020
8020
8120
4620
3C18
ENDCHAR
STARTCHAR .notdef
ENCODING -1
SWIDTH 0 0
DWIDTH 0 0
BBX 1 1 0 0
BITMAP
00
ENDCHAR
STARTCHAR .null
ENCODING -1
SWIDTH 0 0
DWIDTH 0 0
BBX 1 1 0 0
BITMAP
00
ENDCHAR
STARTCHAR nonmarkingreturn
ENCODING -1
SWIDTH 0 0
DWIDTH 0 0
BBX 1 1 0 0
BITMAP
00
ENDCHAR
ENDFONT
